<?xml version="1.0" encoding="iso-8859-1"?>
<!-- Generator: Adobe Illustrator 22.0.1, SVG Export Plug-In . SVG Version: 6.00 Build 0)  -->
<svg version="1.1" id="&#x421;&#x43B;&#x43E;&#x439;_1"
	 xmlns="http://www.w3.org/2000/svg" xmlns:xlink="http://www.w3.org/1999/xlink" x="0px" y="0px" viewBox="0 0 4685.648 997.482"
	 style="enable-background:new 0 0 4685.648 997.482;" xml:space="preserve">
<linearGradient id="SVGID_1_" gradientUnits="userSpaceOnUse" x1="426.9884" y1="83.5356" x2="308.9086" y2="402.5859">
	<stop  offset="0" style="stop-color:#FFA100"/>
	<stop  offset="1" style="stop-color:#B65D00"/>
</linearGradient>
<path style="fill:url(#SVGID_1_);" d="M265.505,427.893c-63.204-80.842-118.021-199.712-54.128-296.218
	c8.013-12.103,17.613-23.163,28.563-32.697c30.509-26.563,70.033-40.996,109.937-47.631c92.87-15.443,190.384,9.778,268.816,61.852
	c-21.081-9.649-44.665-13.196-67.268-17.673c-24.605-4.873-49.55-8.124-74.612-9.295c-89.043-4.161-174.317,22.074-220.905,103.179
	c-41.356,71.995-41.166,162.292,5.085,232.042C262.438,423.633,263.892,425.829,265.505,427.893z"/>
<path style="fill:#8E8E8E;" d="M597.885,129.022c-57.698-28.364-120.139-40.886-183.644-25.986
	c-75.389,17.688-133.616,69.725-149.196,147.57c-9.483,47.382-1.318,96.572,16.374,141.052c1.441,3.624,28.376,62.308,31.824,60.488
	c0.008-0.004,28.163-14.864,28.164-14.864c-0.319,0.168-0.904-0.509-1.693-1.85l24.439-8.867l-3.766-10.382l-25.433,9.228
	c-6.092-14.182-14.922-37.892-20.385-53.28h29.186v-11.043h-33.003c-0.489-1.482-0.836-2.592-1.005-3.227
	c-4.457-16.687-7.181-34.557-7.956-52.728l31.872,2.567l0.886-11.007l-32.981-2.656c0.031-20.489,2.573-41.13,7.957-60.682
	l26.392,14.244l5.245-9.719l-28.336-15.292c6.442-19.091,15.767-36.864,28.304-52.073l23.578,25.874l8.163-7.439l-24.341-26.711
	c13.183-13.618,29.372-24.66,48.835-32.043l17.048,35.123l9.935-4.822l-16.442-33.874c18.635-5.657,38.559-8.304,58.891-8.702
	v25.836h11.043v-25.842c17.806,0.337,35.79,2.264,53.37,5.283v15.23h11.043v-13.18c16.925,3.364,25.533,5.657,40.903,10.408
	L597.885,129.022z"/>
<image style="overflow:visible;" width="1920" height="1080" xlink:href="6FF3ED4F.jpg"  transform="matrix(1 0 0 1 -5632.1504 -7781.7031)">
</image>
<g>
	<path d="M1106.612,515.705V281.268h101.039c11.443,0,22.01,2.367,31.698,7.099c9.683,4.737,17.995,10.897,24.929,18.491
		c6.934,7.594,12.382,16.293,16.345,26.085c3.962,9.797,5.943,19.647,5.943,29.553c0,10.349-1.873,20.42-5.613,30.212
		c-3.746,9.797-8.972,18.491-15.684,26.085c-6.717,7.595-14.859,13.652-24.434,18.161c-9.576,4.515-20.09,6.77-31.533,6.77h-38.303
		v71.982H1106.612z M1170.999,387.59h34.01c3.963,0,7.646-1.816,11.061-5.448c3.411-3.633,5.118-10.179,5.118-19.647
		c0-9.684-1.981-16.289-5.944-19.812c-3.962-3.519-7.924-5.283-11.887-5.283h-32.359V387.59z"/>
</g>
<g>
	<path d="M1509.854,459.572v56.133h-167.078V281.268h164.106v56.133h-99.719v33.019h85.19v52.171h-85.19v36.981H1509.854z"/>
</g>
<g>
	<path d="M1751.198,515.705V392.212l-39.293,86.841h-34.34l-39.293-86.841v123.492h-64.388V281.268h70.331l50.52,110.284
		l50.849-110.284h70.001v234.437H1751.198z"/>
</g>
<g>
	<path d="M1982.31,506.459c-17.831,0-34.01-3.411-48.539-10.235c-14.528-6.821-26.967-15.793-37.312-26.911
		c-10.349-11.113-18.382-23.825-24.104-38.136c-5.727-14.308-8.585-29.058-8.585-44.247c0-15.405,2.972-30.264,8.915-44.576
		c5.943-14.306,14.25-26.91,24.929-37.807c10.675-10.896,23.33-19.589,37.972-26.085c14.637-6.49,30.651-9.74,48.043-9.74
		c17.831,0,34.01,3.415,48.539,10.235c14.528,6.826,26.962,15.85,37.312,27.077c10.344,11.226,18.326,23.995,23.939,38.301
		c5.613,14.312,8.42,28.949,8.42,43.916c0,15.411-2.972,30.213-8.915,44.412c-5.944,14.198-14.199,26.745-24.765,37.641
		c-10.566,10.897-23.17,19.647-37.807,26.251C2015.711,503.157,1999.696,506.459,1982.31,506.459z M1929.149,387.589
		c0,7.925,1.099,15.577,3.302,22.949c2.198,7.377,5.5,13.925,9.906,19.645c4.401,5.727,9.958,10.35,16.675,13.868
		c6.712,3.524,14.693,5.283,23.939,5.283s17.279-1.816,24.104-5.448c6.821-3.632,12.383-8.363,16.675-14.199
		c4.292-5.83,7.481-12.491,9.576-19.977c2.089-7.481,3.137-15.075,3.137-22.783c0-7.924-1.104-15.57-3.302-22.948
		c-2.203-7.372-5.562-13.867-10.071-19.481c-4.515-5.613-10.128-10.122-16.84-13.537c-6.717-3.411-14.585-5.119-23.609-5.119
		c-9.245,0-17.227,1.765-23.939,5.284c-6.717,3.523-12.274,8.203-16.675,14.032c-4.406,5.835-7.651,12.44-9.741,19.812
		C1930.191,372.349,1929.149,379.887,1929.149,387.589z"/>
</g>
<g>
	<path d="M2363.012,270.371v234.437h-64.387v-91.793h-78.586v91.793h-64.388V270.371h64.388v86.51h78.586v-86.51H2363.012z"/>
</g>
<g>
	<path d="M2620.142,329.031h-67.361v178.304h-64.387V329.031h-67.689v-56.133h199.438V329.031z"/>
</g>
<g>
	<path style="fill:#FFAF26;" d="M2958.764,331.664h-64.456v170.617h-61.612V331.664h-64.771v-53.713h190.839V331.664z"/>
</g>
<g>
	<path style="fill:#FFAF26;" d="M3036.701,507.334c-2.503,0-5.426-0.21-8.76-0.626c-3.339-0.42-6.883-1.149-10.638-2.19
		c-3.754-1.042-7.405-2.346-10.95-3.911c-3.549-1.564-6.678-3.49-9.387-5.789l12.828-49.746c0.205,0.42,0.938,1.149,2.19,2.19
		c1.251,1.046,2.816,2.088,4.693,3.129c1.878,1.046,3.961,1.985,6.258,2.816c2.292,0.836,4.795,1.251,7.509,1.251
		c4.585,0,8.448-1.143,11.577-3.441c3.129-2.292,5.108-5.524,5.944-9.699l-82.286-158.314h67.267l42.238,99.181l38.797-99.181h64.14
		l-78.219,168.951c-4.591,10.012-9.025,18.514-13.298,25.5c-4.278,6.99-8.868,12.671-13.767,17.051
		c-4.903,4.381-10.222,7.617-15.957,9.7C3051.142,506.288,3044.416,507.334,3036.701,507.334z"/>
</g>
<g>
	<path style="fill:#FFAF26;" d="M3197.915,507.334v-224.33h96.684c10.949,0,21.061,2.265,30.331,6.793
		c9.267,4.533,17.22,10.427,23.856,17.694c6.635,7.267,11.848,15.591,15.639,24.96c3.792,9.375,5.688,18.8,5.688,28.279
		c0,9.903-1.792,19.54-5.372,28.91c-3.584,9.375-8.585,17.694-15.007,24.96c-6.428,7.268-14.219,13.063-23.382,17.378
		c-9.162,4.32-19.224,6.478-30.174,6.478h-36.651v68.878H3197.915z M3259.527,384.743h32.544c3.791,0,7.316-1.738,10.584-5.213
		c3.264-3.476,4.897-9.74,4.897-18.8c0-9.267-1.896-15.586-5.687-18.958c-3.791-3.367-7.583-5.055-11.374-5.055h-30.964V384.743z"/>
</g>
<g>
	<path style="fill:#FFAF26;" d="M3399.176,283.144h171.353v53.647h-109.817v33.134h46.072c26.927,0,47.227,5.947,60.904,17.83
		c13.674,11.888,20.512,28.352,20.512,49.387c0,21.882-6.522,39.026-19.565,51.437c-13.046,12.416-32.611,18.618-58.694,18.618
		h-110.764V283.144z M3501.104,455.442c7.993,0,14.043-1.681,18.145-5.049c4.102-3.363,6.153-7.993,6.153-13.885
		c0-5.049-2.051-9.412-6.153-13.095c-4.102-3.678-10.152-5.522-18.145-5.522h-40.392v37.551H3501.104z"/>
</g>
<g>
	<path style="fill:#FFAF26;" d="M3683.974,411.283l95.42-128.279h44.866v224.33h-61.612V382.847l-94.472,124.487h-45.814v-224.33
		h61.612V411.283z"/>
</g>
<g>
	<path style="fill:#FFAF26;" d="M4067.107,283.004v224.33h-61.612v-87.836h-75.198v87.836h-61.612v-224.33h61.612v82.781h75.198
		v-82.781H4067.107z"/>
</g>
<g>
	<path d="M4417.94,443.351v64.858h-232.668v-51.225l111.851-101.21c10.813-9.915,18.071-18.383,21.773-25.406
		c3.696-7.023,5.55-14.11,5.55-21.275c0-9.36-3.275-16.66-9.819-21.895c-6.551-5.228-16.083-7.849-28.603-7.849
		c-11.1,0-21.279,2.414-30.525,7.229c-9.252,4.822-16.863,11.774-22.84,20.862l-62.756-33.875
		c11.667-18.725,28.029-33.462,49.095-44.202c21.059-10.741,45.96-16.111,74.71-16.111c22.766,0,42.905,3.583,60.408,10.741
		c17.504,7.165,31.165,17.421,40.984,30.776c9.818,13.361,14.728,28.853,14.728,46.474c0,15.698-3.489,30.505-10.459,44.409
		c-6.978,13.91-20.425,29.679-40.343,47.3l-56.353,50.399H4417.94z"/>
</g>
<g>
	<path d="M4638.141,449.551c2.07,0,33.124,0,33.124,0v-71.769h-31.054v-48.996h-51.756h-37.265v48.996h-31.744l64.178-152.508
		h-87.641l-64.868,153.198v71.769h122.835c0,0-0.69,57.967,0,57.967c0.69,0,84.19,0,84.19,0V449.551z"/>
</g>
<g>
	<path d="M997.722,110.957c0,0-7.853-29.705-20.258-37.899s-23.217,1.821-23.217,1.821H889.83
		c-9.674,1.821-12.747,14.34-12.747,14.34s-205.922,16.237-205.922,16.237c-10.766,0.793-21.517,1.79-32.245,2.998
		c-5.697,0.641-11.334,1.242-16.963,2.447c-5.777,1.236-11.471,2.859-17.031,4.855c-3.174,1.139-6.273,2.438-9.369,3.774
		c-2.882,1.244-5.989,2.177-8.918,3.397c-2.36,0.99-5.263,1.82-7.393,3.24c-8.454,3.876-16.714,8.175-24.731,12.89
		c-7.499,4.41-14.784,9.182-21.82,14.3c-6.581,4.787-12.943,9.876-19.059,15.245c-5.702,5.006-11.191,10.254-16.449,15.725
		c-4.865,5.062-9.532,10.315-13.989,15.74c-4.072,4.957-7.969,10.058-11.681,15.291c-3.326,4.689-6.504,9.484-9.523,14.376
		c-2.629,4.259-5.138,8.593-7.516,12.997c-1.981,3.668-3.872,7.386-5.66,11.152c-1.385,2.917-2.708,5.864-3.955,8.843
		c-0.84,2.007-1.646,4.028-2.4,6.069c-0.347,0.938-0.686,1.879-0.997,2.83c-0.016,0.049-0.032,0.099-0.048,0.149
		c0,0-64.645,152.962,27.315,283.161s224.89,92.87,224.89,92.87s118.363-23.673,179.366-152.962
		c61.003-129.289,9.105-228.987,9.105-228.987l75.874-0.607c4.401,3.642,11.988,3.339,11.988,3.339s15.934,5.463,30.957-46.435
		C1015.932,170.253,997.722,110.957,997.722,110.957z M744.38,302.501l8.308,15.364h-28.225l-6.032-15.364H744.38z M715.699,296.924
		l-6.146-11.495l23.673,0.797c0,0,7.284,10.584,7.284,10.698S715.699,296.924,715.699,296.924z M756.899,348.253
		c0,0,0.172,2.32,0.191,6.449c3.318,163.283-123.106,178.094-123.106,178.094c116.294-37.955,123.236-150,123.106-178.094
		C757.046,352.575,756.987,350.43,756.899,348.253z M731.86,483.46c56.45-70.563,29.591-146.588,29.591-146.588
		c-24.128-85.586-104.706-101.975-104.706-101.975l-12.292-7.739c70.563,5.008,101.974,54.629,101.974,54.629
		c61.913,79.668,17.299,168.895,17.299,168.895c-58.726,119.274-160.701,90.138-160.701,90.138
		C699.993,536.723,731.86,483.46,731.86,483.46z M723.861,416.793c-22.668,84.052-101.359,135.924-175.763,115.859
		c-74.403-20.065-116.343-104.47-93.675-188.522c22.668-84.053,101.359-135.924,175.763-115.859
		C704.588,248.336,746.528,332.74,723.861,416.793z M523.865,551.998c217.14,103.107,281.094-80.574,281.094-80.574
		c38.689-95.596-6.329-212.399-6.329-212.399c27.315-0.91,32.51,7.55,32.51,7.55c41.653,119.495-15.022,230.114-15.022,230.114
		C700.718,675.59,522.015,551.119,523.865,551.998z M737.096,232.848c2.049,0,124.281-10.015,124.281-10.015
		s-0.783,17.982,11.445,31.639c0,0-8.941-7.512-15.542-18.21L737.096,232.848z M518.806,180.951
		c6.756-7.29,14.323-13.804,22.325-19.688c7.974-5.863,16.394-11.11,25.068-15.872c8.189-4.495,16.612-8.559,25.187-12.263
		c5.739-2.479,11.547-4.795,17.41-6.962c5.364-1.982,10.765-4.097,16.256-5.808c5.798-1.807,11.708-3.257,17.683-4.342
		c5.973-1.084,11.955-1.555,17.975-2.135c1.801-0.174,3.603-0.347,5.404-0.521c5.039-0.486,10.078-0.972,15.117-1.457
		c5.884-0.567,11.768-1.134,17.652-1.702c6.504-0.627,13.007-1.254,19.511-1.881c6.898-0.665,13.797-1.33,20.695-1.995
		c7.068-0.681,14.136-1.363,21.205-2.044c7.013-0.676,14.026-1.352,21.039-2.028c6.733-0.649,13.465-1.298,20.198-1.947
		c6.227-0.6,12.455-1.201,18.682-1.801c5.497-0.53,10.994-1.06,16.491-1.59c4.542-0.438,9.084-0.876,13.626-1.314
		c3.362-0.324,6.723-0.648,10.085-0.972c1.956-0.189,3.912-0.377,5.869-0.566c0.413-0.04,0.826-0.08,1.238-0.119
		c-6.146,14.966-6.146,63.336-6.146,63.336l-121.55,7.056c-36.647,2.731-76.664,6.222-76.664,6.222
		c-114.033,15.966-147.998,55.691-147.998,55.691c38.24-61.003,150.686-77.391,150.686-77.391l180.276-16.389l3.642-20.941
		c0,0-116.998,10.471-191.202,19.575c-19.401,2.381-38.806,6.032-57.348,12.326c-5.56,1.887-11.097,3.889-16.414,6.392
		c-4.766,2.244-8.916,5.293-13.511,7.869c-9.443,5.293-18.527,11.226-27.176,17.738c-15.74,11.851-30.039,25.618-42.44,40.93
		c-40.248,49.694-59.21,113.496-68.04,176.832c0.331-2.372-0.173-5.149-0.205-7.555c-0.034-2.623-0.031-5.247,0.011-7.871
		c0.083-5.245,0.318-10.488,0.702-15.72c0.767-10.464,2.129-20.883,4.063-31.195c3.87-20.633,10.027-40.835,18.294-60.131
		c8.265-19.291,18.641-37.682,30.953-54.68C496.608,203.4,506.702,190.874,518.806,180.951z M432.007,439.908
		c62.769,193.625,213.988,187.266,250.425,182.733c2.643-0.38,5.304-0.787,8.001-1.243c0,0-2.86,0.603-8.001,1.243
		C468.735,653.404,432.007,439.908,432.007,439.908z M861.149,481.184C797.415,642.34,646.275,639.608,646.275,639.608
		c132.652-16.863,183.499-113.558,183.499-113.558c86.72-139.98,27.734-259.742,27.734-259.742h12.747
		C908.95,389.225,861.149,481.184,861.149,481.184z M925.642,184.365l-41.731,0.759v-6.677l41.731-1.669V184.365z M925.642,173.287
		l-41.731,1.366l0.607-21.852l41.124-1.214V173.287z M932.964,96.617c0,0-37.33,2.504-37.671,2.504s3.983-7.853,3.983-7.853
		l37.102-2.504L932.964,96.617z M898.935,86.488c0,0-27.011,30.957-14.416,163.432c0,0-17.906-64.645-9.408-121.702
		c0,0,3.49-41.124,16.692-49.47l51.518,0.607C943.321,79.356,946.887,82.846,898.935,86.488z M969.042,255.383
		c-14.205,0-25.721-37.978-25.721-84.827c0-46.849,11.516-84.827,25.721-84.827s25.721,37.978,25.721,84.827
		C994.763,217.405,983.248,255.383,969.042,255.383z"/>
	<path d="M947.873,170.556c0,24.728,3.228,46.811,8.286,61.351c-1.616-10.921-2.531-23.325-2.531-36.48
		c0-43.79,10.121-79.288,22.605-79.288c5.434,0,10.42,6.728,14.319,17.937c-3.764-25.432-11.341-42.809-20.075-42.809
		C957.994,91.268,947.873,126.766,947.873,170.556z"/>
	<path d="M469.972,348.323c-20.308,75.303,16.925,150.829,83.161,168.693c66.237,17.863,136.396-28.701,156.704-104.004
		c20.308-75.303-16.924-150.829-83.161-168.692C560.439,226.455,490.28,273.02,469.972,348.323z M469.526,379.095l46.662,3.642
		c-0.683,13.43,0.91,39.151,0.91,39.151l-45.069-4.325C468.274,405.044,469.526,379.095,469.526,379.095z M474.876,434.294
		l-1.935-10.357l44.841,3.073c0,2.731,2.732,10.812,2.959,11.153S474.876,434.294,474.876,434.294z M683.301,291.202l14.568,21.845
		l-35.205,55.843l43.4-32.778c2.428,6.07,3.49,25.185,3.49,25.185l-39.91,22.16l39.91-2.997l-2.883,23.028l-39.151-2.997
		l35.205,18.779l-8.498,21.254l-34.295-26.413l25.206,44.614l-16.405,19.12l-20.638-53.908l2.42,71.208
		c-7.292,6.677-24.575,9.408-24.575,9.408l8.043-82.665c0,0-35.054,79.933-35.964,79.933c-0.91,0-20.638-10.926-22.762-11.229
		c-2.125-0.303,47.345-77.088,47.345-77.088L561.22,461.76l-13.581-23.577l69.197-37.691l-68.893,6.335l-2.732-27.732l71.928,4.97
		l-58.271-33.081l7.891-27.011l57.664,45.221l-35.281-64.038l18.286-19.727l29.136,75.869l-2.58-80.118l24.735-7.284l-8.202,87.402
		L683.301,291.202z M649.31,258.956c-28.529-6.138-119.577,25.866-122.309,130.268s71.625,125.951,71.625,125.951
		c-102.581-26.101-74.775-159.335-74.775-159.335C563.494,237.173,649.31,258.956,649.31,258.956z"/>
	<path d="M682.432,622.642c5.141-0.64,8.001-1.243,8.001-1.243C687.736,621.855,685.075,622.261,682.432,622.642z"/>
	<path d="M757.089,354.702c-0.019-4.129-0.191-6.449-0.191-6.449C756.987,350.43,757.046,352.575,757.089,354.702z"/>
	<path d="M626.44,388.107c-2.385,9.887,2.796,19.618,11.573,21.736c8.777,2.118,17.826-4.18,20.211-14.067
		c2.385-9.887-2.796-19.618-11.573-21.736C637.874,371.922,628.825,378.22,626.44,388.107z M655.478,395.113
		c-1.973,8.179-9.459,13.389-16.72,11.637c-7.261-1.752-11.547-9.802-9.574-17.981c1.973-8.179,9.459-13.389,16.72-11.637
		C653.165,378.883,657.452,386.934,655.478,395.113z"/>
	<path d="M652.193,389.501c-1.181-2.847-3.486-5.038-6.485-5.762c-5.316-1.283-10.797,2.532-12.241,8.52
		c-0.376,1.559-0.439,3.112-0.236,4.578c-0.913-2.2-1.154-4.793-0.524-7.403c1.445-5.988,6.925-9.803,12.241-8.52
		C648.879,381.864,651.617,385.335,652.193,389.501z"/>
	<path d="M632.706,389.435c-0.63,2.61-0.388,5.202,0.524,7.403c-0.203-1.467-0.14-3.019,0.236-4.578
		c1.445-5.988,6.925-9.803,12.241-8.52c2.999,0.724,5.304,2.915,6.485,5.762c-0.576-4.166-3.314-7.638-7.246-8.586
		C639.631,379.632,634.151,383.447,632.706,389.435z"/>
</g>
<path d="M323.562,25.663c0,0-359.131,11.736-239.421,335.658s488.23,387.298,488.23,387.298s248.809,49.292,342.7-133.793
	c-12.854,25.065-42.637,47.099-65.4,61.846c-70.609,45.742-156.661,40.572-235.165,21.779
	c-73.612-17.622-143.837-48.384-207.031-90.012c-67.971-44.775-127.815-102.024-174.874-168.478
	c-37.465-52.906-72.046-111.191-85.362-175.399c-10.176-49.066-5.23-100.563,23.756-142.568
	C206.125,71.085,266.043,42.974,323.562,25.663z"/>
<g>
	<path d="M1109.427,599.844c7.083-1.18,16.356-2.192,28.161-2.192c14.501,0,25.125,3.372,31.87,9.442
		c6.239,5.396,9.949,13.659,9.949,23.776c0,10.286-3.035,18.38-8.769,24.282c-7.757,8.263-20.404,12.479-34.737,12.479
		c-4.384,0-8.431-0.169-11.804-1.012v45.528h-14.67V599.844z M1124.097,654.647c3.204,0.843,7.251,1.181,12.141,1.181
		c17.706,0,28.498-8.601,28.498-24.282c0-15.008-10.624-22.259-26.812-22.259c-6.408,0-11.298,0.506-13.827,1.181V654.647z"/>
	<path d="M1202.172,674.039c0.337,20.066,13.153,28.329,27.992,28.329c10.624,0,17.031-1.854,22.596-4.216l2.529,10.624
		c-5.227,2.36-14.165,5.059-27.148,5.059c-25.125,0-40.133-16.525-40.133-41.145s14.502-44.012,38.278-44.012
		c26.643,0,33.725,23.439,33.725,38.447c0,3.035-0.337,5.396-0.506,6.913H1202.172z M1245.677,663.416
		c0.168-9.443-3.878-24.113-20.572-24.113c-15.008,0-21.584,13.827-22.765,24.113H1245.677z"/>
	<path d="M1279.234,630.534h18.211l14.839,41.145c2.023,6.07,5.565,16.02,7.419,22.427h0.337c1.855-6.07,6.408-19.055,9.612-27.991
		l13.152-35.58h18.38l5.733,81.614h-14.165l-1.855-38.952c-0.506-8.769-1.181-19.224-1.518-29.172h-0.506
		c-2.192,7.419-4.384,13.995-8.937,26.474l-15.682,41.145h-10.792l-14.502-40.302c-2.529-7.757-6.07-19.561-8.094-27.148h-0.675
		c-0.337,9.612-0.843,20.404-1.349,29.341l-2.023,38.615h-13.659L1279.234,630.534z"/>
	<path d="M1460.001,670.667c0,30.184-20.91,43.336-40.639,43.336c-22.09,0-39.121-16.188-39.121-41.987
		c0-27.317,17.874-43.337,40.47-43.337C1444.15,628.678,1460.001,645.71,1460.001,670.667z M1395.249,671.509
		c0,17.874,10.286,31.364,24.788,31.364c14.165,0,24.788-13.321,24.788-31.701c0-13.827-6.914-31.364-24.451-31.364
		S1395.249,655.996,1395.249,671.509z"/>
	<path d="M1493.052,630.534v32.882h38.784v-32.882h14.67v81.614h-14.67v-36.929h-38.784v36.929h-14.67v-81.614H1493.052z"/>
	<path d="M1625.425,630.534v11.804h-25.462v69.811h-14.67v-69.811h-25.462v-11.804H1625.425z"/>
	<path d="M1688.996,630.534v34.399c0,12.984-0.168,21.078-0.843,32.713l0.506,0.169c4.89-9.949,7.757-15.683,13.153-25.125
		l25.462-42.156h17.368v81.614h-14.164V677.58c0-13.321,0.337-20.234,1.012-33.388h-0.506c-5.228,10.455-8.769,17.031-13.49,25.294
		c-7.757,12.646-16.694,28.329-25.462,42.662H1675v-81.614H1688.996z"/>
	<path d="M1871.616,630.534v81.614h-14.839v-69.811h-37.941v69.811h-14.67v-81.614H1871.616z"/>
	<path d="M1895.729,657.176c0-10.455-0.337-18.886-0.674-26.643h13.321l0.674,13.996h0.337c6.07-9.949,15.682-15.852,29.003-15.852
		c19.729,0,34.568,16.694,34.568,41.482c0,29.341-17.875,43.842-37.098,43.842c-10.792,0-20.235-4.721-25.125-12.815h-0.337v44.349
		h-14.67V657.176z M1910.399,678.929c0,2.191,0.337,4.215,0.674,6.07c2.698,10.286,11.635,17.368,22.259,17.368
		c15.682,0,24.788-12.815,24.788-31.533c0-16.356-8.6-30.353-24.282-30.353c-10.118,0-19.561,7.251-22.427,18.381
		c-0.506,1.854-1.012,4.047-1.012,6.07V678.929z"/>
	<path d="M2065.534,670.667c0,30.184-20.91,43.336-40.639,43.336c-22.09,0-39.121-16.188-39.121-41.987
		c0-27.317,17.874-43.337,40.47-43.337C2049.683,628.678,2065.534,645.71,2065.534,670.667z M2000.782,671.509
		c0,17.874,10.286,31.364,24.788,31.364c14.165,0,24.788-13.321,24.788-31.701c0-13.827-6.914-31.364-24.451-31.364
		S2000.782,655.996,2000.782,671.509z"/>
	<path d="M2146.308,630.534v70.485l8.431,0.168l-0.843,36.929h-11.635l-0.675-25.968h-56.489l-0.674,25.968h-11.635l-0.674-36.929
		l6.914-0.168c3.541-5.228,6.239-10.792,8.094-16.694c3.204-10.117,4.722-21.078,4.722-32.545v-21.246H2146.308z M2104.995,655.322
		c0,10.792-1.518,21.246-4.216,30.353c-1.686,5.564-4.047,10.623-6.576,15.176h37.603v-59.019h-26.811V655.322z"/>
	<path d="M2217.638,712.148l-1.18-10.286h-0.506c-4.553,6.408-13.321,12.141-24.957,12.141c-16.525,0-24.957-11.635-24.957-23.438
		c0-19.729,17.537-30.521,49.07-30.353v-1.687c0-6.745-1.855-18.886-18.549-18.886c-7.588,0-15.513,2.36-21.247,6.07l-3.373-9.78
		c6.745-4.384,16.525-7.251,26.812-7.251c24.957,0,31.027,17.031,31.027,33.388v30.521c0,7.082,0.337,13.996,1.349,19.561H2217.638z
		 M2215.447,670.498c-16.188-0.337-34.568,2.529-34.568,18.38c0,9.612,6.408,14.165,13.996,14.165
		c10.623,0,17.368-6.745,19.729-13.659c0.506-1.518,0.843-3.203,0.843-4.722V670.498z"/>
	<path d="M2260.638,630.534l26.98,35.58h3.035v-35.58h14.165v35.58h2.867l26.98-35.58h17.031l-32.208,37.098
		c12.31,1.349,19.561,8.6,24.451,21.584c2.867,7.925,5.564,16.524,8.937,22.933h-14.839c-2.698-4.89-5.059-11.635-7.419-18.718
		c-5.059-13.321-12.647-17.368-23.271-17.368h-2.529v36.086h-14.165v-36.086h-2.698c-11.467,0-18.38,4.216-23.439,17.537
		c-2.698,7.082-4.89,13.49-7.757,18.549h-14.333c3.373-6.576,6.07-15.176,8.937-22.765c5.059-13.152,12.31-20.403,24.619-21.752
		l-32.376-37.098H2260.638z"/>
	<path d="M2413.075,712.148l-1.18-10.286h-0.506c-4.553,6.408-13.321,12.141-24.957,12.141c-16.525,0-24.957-11.635-24.957-23.438
		c0-19.729,17.537-30.521,49.07-30.353v-1.687c0-6.745-1.855-18.886-18.549-18.886c-7.588,0-15.513,2.36-21.247,6.07l-3.373-9.78
		c6.745-4.384,16.525-7.251,26.812-7.251c24.957,0,31.027,17.031,31.027,33.388v30.521c0,7.082,0.337,13.996,1.349,19.561H2413.075z
		 M2410.884,670.498c-16.188-0.337-34.568,2.529-34.568,18.38c0,9.612,6.408,14.165,13.996,14.165
		c10.623,0,17.368-6.745,19.729-13.659c0.506-1.518,0.843-3.203,0.843-4.722V670.498z"/>
</g>
<g>
	<path d="M2579.874,630.534v11.804h-25.463v69.811h-14.67v-69.811h-25.463v-11.804H2579.874z"/>
	<path d="M2601.794,630.534l17.875,48.227c1.854,5.396,3.878,11.804,5.227,16.693h0.338c1.518-4.89,3.203-11.129,5.228-17.03
		l16.188-47.89h15.683l-22.259,58.176c-10.624,27.991-17.874,42.324-27.992,51.093c-7.251,6.408-14.501,8.938-18.211,9.611
		l-3.71-12.478c3.71-1.181,8.6-3.541,12.984-7.251c4.047-3.204,9.105-8.938,12.478-16.525c0.675-1.518,1.181-2.698,1.181-3.541
		s-0.337-2.023-1.012-3.879l-30.184-75.206H2601.794z"/>
	<path d="M2675.821,657.176c0-10.455-0.338-18.886-0.675-26.643h13.321l0.675,13.996h0.337c6.07-9.949,15.683-15.852,29.004-15.852
		c19.729,0,34.568,16.694,34.568,41.482c0,29.341-17.875,43.842-37.098,43.842c-10.792,0-20.235-4.721-25.125-12.815h-0.338v44.349
		h-14.67V657.176z M2690.491,678.929c0,2.191,0.338,4.215,0.675,6.07c2.698,10.286,11.635,17.368,22.259,17.368
		c15.682,0,24.787-12.815,24.787-31.533c0-16.356-8.6-30.353-24.281-30.353c-10.118,0-19.561,7.251-22.428,18.381
		c-0.506,1.854-1.012,4.047-1.012,6.07V678.929z"/>
	<path d="M2833.485,602.88c-4.216,1.518-11.636,2.866-17.031,3.709c-13.153,2.023-22.765,6.408-29.004,15.346
		c-5.228,7.419-8.263,18.38-8.937,26.979h0.506c5.228-11.804,16.693-18.38,28.329-18.38c20.066,0,34.736,14.333,34.736,40.301
		c0,26.644-13.827,43.168-37.772,43.168c-28.666,0-38.108-27.485-38.108-54.634c0-18.549,3.878-33.726,12.646-45.191
		c7.926-11.298,19.224-16.525,35.074-19.223c6.576-1.012,14.67-2.361,20.234-4.384L2833.485,602.88z M2804.312,641.494
		c-8.768,0-15.007,4.554-18.38,11.13c-2.698,4.89-4.047,10.792-4.047,17.368c0,13.49,6.576,32.882,22.765,32.882
		c16.356,0,22.427-15.851,22.427-30.858C2827.077,658.694,2821.849,641.494,2804.312,641.494z"/>
	<path d="M2934.662,670.667c0,30.184-20.91,43.336-40.639,43.336c-22.09,0-39.121-16.188-39.121-41.987
		c0-27.317,17.874-43.337,40.47-43.337C2918.81,628.678,2934.662,645.71,2934.662,670.667z M2869.91,671.509
		c0,17.874,10.286,31.364,24.787,31.364c14.165,0,24.788-13.321,24.788-31.701c0-13.827-6.913-31.364-24.45-31.364
		S2869.91,655.996,2869.91,671.509z"/>
	<path d="M2968.051,630.534v35.411h3.541l30.69-35.411h18.043l-35.58,36.929c13.152,1.349,21.078,10.117,27.485,24.788
		c2.192,5.396,5.059,13.321,8.769,19.897h-15.514c-2.191-3.541-5.059-9.949-7.588-16.694c-5.564-13.152-13.152-19.223-26.979-19.223
		h-2.867v35.917h-14.67v-81.614H2968.051z"/>
	<path d="M3106.998,670.667c0,30.184-20.909,43.336-40.639,43.336c-22.09,0-39.121-16.188-39.121-41.987
		c0-27.317,17.875-43.337,40.471-43.337C3091.147,628.678,3106.998,645.71,3106.998,670.667z M3042.246,671.509
		c0,17.874,10.286,31.364,24.788,31.364c14.164,0,24.788-13.321,24.788-31.701c0-13.827-6.914-31.364-24.451-31.364
		S3042.246,655.996,3042.246,671.509z"/>
	<path d="M3126.56,630.534h18.211l14.839,41.145c2.023,6.07,5.565,16.02,7.42,22.427h0.337c1.855-6.07,6.408-19.055,9.612-27.991
		l13.152-35.58h18.38l5.733,81.614h-14.164l-1.855-38.952c-0.506-8.769-1.18-19.224-1.518-29.172h-0.506
		c-2.192,7.419-4.384,13.995-8.937,26.474l-15.683,41.145h-10.792l-14.502-40.302c-2.529-7.757-6.07-19.561-8.094-27.148h-0.675
		c-0.337,9.612-0.843,20.404-1.349,29.341l-2.023,38.615h-13.659L3126.56,630.534z"/>
	<path d="M3300.582,630.534v81.614h-14.839v-69.811h-37.94v69.811h-14.671v-81.614H3300.582z"/>
	<path d="M3324.694,657.176c0-10.455-0.337-18.886-0.674-26.643h13.321l0.674,13.996h0.338c6.07-9.949,15.682-15.852,29.003-15.852
		c19.729,0,34.568,16.694,34.568,41.482c0,29.341-17.874,43.842-37.098,43.842c-10.792,0-20.234-4.721-25.125-12.815h-0.337v44.349
		h-14.671V657.176z M3339.365,678.929c0,2.191,0.337,4.215,0.674,6.07c2.698,10.286,11.636,17.368,22.259,17.368
		c15.683,0,24.788-12.815,24.788-31.533c0-16.356-8.6-30.353-24.282-30.353c-10.117,0-19.561,7.251-22.427,18.381
		c-0.506,1.854-1.012,4.047-1.012,6.07V678.929z"/>
	<path d="M3428.904,674.039c0.338,20.066,13.153,28.329,27.992,28.329c10.623,0,17.031-1.854,22.596-4.216l2.529,10.624
		c-5.228,2.36-14.165,5.059-27.148,5.059c-25.125,0-40.133-16.525-40.133-41.145s14.502-44.012,38.277-44.012
		c26.643,0,33.726,23.439,33.726,38.447c0,3.035-0.338,5.396-0.506,6.913H3428.904z M3472.41,663.416
		c0.168-9.443-3.879-24.113-20.572-24.113c-15.008,0-21.584,13.827-22.765,24.113H3472.41z"/>
	<path d="M3563.299,709.113c-3.878,2.023-12.479,4.722-23.438,4.722c-24.619,0-40.639-16.694-40.639-41.65
		c0-25.125,17.199-43.337,43.842-43.337c8.769,0,16.525,2.192,20.572,4.216l-3.372,11.467c-3.541-2.023-9.105-3.879-17.2-3.879
		c-18.717,0-28.834,13.827-28.834,30.858c0,18.886,12.141,30.521,28.328,30.521c8.432,0,13.996-2.192,18.212-4.047L3563.299,709.113
		z"/>
	<path d="M3637.833,709.113c-3.878,2.023-12.479,4.722-23.438,4.722c-24.619,0-40.639-16.694-40.639-41.65
		c0-25.125,17.199-43.337,43.842-43.337c8.769,0,16.525,2.192,20.572,4.216l-3.372,11.467c-3.541-2.023-9.105-3.879-17.2-3.879
		c-18.717,0-28.834,13.827-28.834,30.858c0,18.886,12.141,30.521,28.328,30.521c8.432,0,13.996-2.192,18.212-4.047L3637.833,709.113
		z"/>
	<path d="M3728.05,670.667c0,30.184-20.91,43.336-40.639,43.336c-22.09,0-39.121-16.188-39.121-41.987
		c0-27.317,17.874-43.337,40.47-43.337C3712.198,628.678,3728.05,645.71,3728.05,670.667z M3663.298,671.509
		c0,17.874,10.286,31.364,24.787,31.364c14.165,0,24.788-13.321,24.788-31.701c0-13.827-6.913-31.364-24.45-31.364
		S3663.298,655.996,3663.298,671.509z"/>
	<path d="M3746.767,657.176c0-10.455-0.337-18.886-0.674-26.643h13.321l0.674,13.996h0.338c6.07-9.949,15.682-15.852,29.003-15.852
		c19.729,0,34.568,16.694,34.568,41.482c0,29.341-17.874,43.842-37.098,43.842c-10.792,0-20.234-4.721-25.125-12.815h-0.337v44.349
		h-14.671V657.176z M3761.438,678.929c0,2.191,0.337,4.215,0.674,6.07c2.698,10.286,11.636,17.368,22.259,17.368
		c15.683,0,24.788-12.815,24.788-31.533c0-16.356-8.6-30.353-24.282-30.353c-10.117,0-19.561,7.251-22.427,18.381
		c-0.506,1.854-1.012,4.047-1.012,6.07V678.929z"/>
	<path d="M3916.573,670.667c0,30.184-20.91,43.336-40.639,43.336c-22.09,0-39.121-16.188-39.121-41.987
		c0-27.317,17.874-43.337,40.47-43.337C3900.721,628.678,3916.573,645.71,3916.573,670.667z M3851.821,671.509
		c0,17.874,10.286,31.364,24.787,31.364c14.165,0,24.788-13.321,24.788-31.701c0-13.827-6.913-31.364-24.45-31.364
		S3851.821,655.996,3851.821,671.509z"/>
	<path d="M3934.954,631.546c5.733-1.012,16.357-1.855,25.969-1.855c13.659,0,36.255,2.192,36.255,20.404
		c0,10.117-7.757,16.356-17.031,18.38v0.337c11.972,1.687,20.74,8.432,20.74,20.235c0,21.415-26.979,24.113-42.999,24.113
		c-9.105,0-18.549-0.675-22.934-1.012V631.546z M3948.95,702.368c4.216,0.506,7.251,0.675,11.973,0.675
		c9.949,0,24.788-2.361,24.788-14.165s-11.804-14.333-25.969-14.333h-10.792V702.368z M3949.119,664.764h11.129
		c10.961,0,22.259-3.204,22.259-12.815c0-8.094-7.082-11.973-21.921-11.973c-4.891,0-7.926,0.338-11.467,0.675V664.764z"/>
	<path d="M4009.995,732.889c3.71-9.949,8.263-27.992,10.117-40.302l16.525-1.687c-3.879,14.333-11.298,33.051-16.02,40.977
		L4009.995,732.889z"/>
</g>
<g>
	<path d="M1176.033,818.535v81.614h-14.839v-69.811h-37.941v69.811h-14.67v-81.614H1176.033z"/>
	<path d="M1200.146,845.177c0-10.455-0.337-18.886-0.674-26.643h13.321l0.674,13.996h0.337c6.07-9.949,15.682-15.852,29.003-15.852
		c19.729,0,34.568,16.694,34.568,41.482c0,29.341-17.875,43.842-37.098,43.842c-10.792,0-20.235-4.721-25.125-12.815h-0.337v44.349
		h-14.67V845.177z M1214.817,866.93c0,2.191,0.337,4.215,0.674,6.07c2.698,10.286,11.635,17.368,22.259,17.368
		c15.682,0,24.788-12.815,24.788-31.533c0-16.356-8.6-30.353-24.282-30.353c-10.118,0-19.561,7.251-22.427,18.381
		c-0.506,1.854-1.012,4.047-1.012,6.07V866.93z"/>
	<path d="M1369.951,858.668c0,30.184-20.91,43.336-40.639,43.336c-22.09,0-39.121-16.188-39.121-41.987
		c0-27.317,17.875-43.337,40.47-43.337C1354.1,816.679,1369.951,833.711,1369.951,858.668z M1305.199,859.51
		c0,17.874,10.286,31.364,24.788,31.364c14.165,0,24.788-13.321,24.788-31.701c0-13.827-6.914-31.364-24.451-31.364
		S1305.199,843.997,1305.199,859.51z"/>
	<path d="M1450.726,818.535v70.485l8.431,0.168l-0.843,36.929h-11.635l-0.675-25.968h-56.489l-0.674,25.968h-11.635l-0.674-36.929
		l6.914-0.168c3.541-5.228,6.239-10.792,8.094-16.694c3.204-10.117,4.722-21.078,4.722-32.545v-21.246H1450.726z M1409.413,843.323
		c0,10.792-1.518,21.246-4.216,30.353c-1.686,5.564-4.047,10.623-6.576,15.176h37.603v-59.019h-26.811V843.323z"/>
	<path d="M1522.055,900.149l-1.18-10.286h-0.506c-4.553,6.408-13.321,12.141-24.957,12.141c-16.525,0-24.957-11.635-24.957-23.438
		c0-19.729,17.537-30.521,49.07-30.353v-1.687c0-6.745-1.855-18.886-18.549-18.886c-7.588,0-15.513,2.36-21.247,6.07l-3.373-9.78
		c6.745-4.384,16.525-7.251,26.812-7.251c24.957,0,31.027,17.031,31.027,33.388v30.521c0,7.082,0.337,13.996,1.349,19.561H1522.055z
		 M1519.864,858.499c-16.188-0.337-34.568,2.529-34.568,18.38c0,9.612,6.408,14.165,13.996,14.165
		c10.623,0,17.368-6.745,19.729-13.659c0.506-1.518,0.843-3.203,0.843-4.722V858.499z"/>
	<path d="M1565.056,818.535l26.98,35.58h3.035v-35.58h14.165v35.58h2.867l26.98-35.58h17.031l-32.208,37.098
		c12.31,1.349,19.561,8.6,24.451,21.584c2.867,7.925,5.564,16.524,8.937,22.933h-14.839c-2.698-4.89-5.059-11.635-7.419-18.718
		c-5.059-13.321-12.647-17.368-23.271-17.368h-2.529v36.086h-14.165v-36.086h-2.698c-11.466,0-18.38,4.216-23.439,17.537
		c-2.698,7.082-4.89,13.49-7.757,18.549h-14.333c3.373-6.576,6.07-15.176,8.937-22.765c5.059-13.152,12.31-20.403,24.619-21.752
		l-32.376-37.098H1565.056z"/>
	<path d="M1717.493,900.149l-1.18-10.286h-0.506c-4.553,6.408-13.321,12.141-24.957,12.141c-16.525,0-24.957-11.635-24.957-23.438
		c0-19.729,17.537-30.521,49.07-30.353v-1.687c0-6.745-1.855-18.886-18.549-18.886c-7.588,0-15.513,2.36-21.247,6.07l-3.373-9.78
		c6.745-4.384,16.525-7.251,26.812-7.251c24.957,0,31.027,17.031,31.027,33.388v30.521c0,7.082,0.337,13.996,1.349,19.561H1717.493z
		 M1715.301,858.499c-16.188-0.337-34.568,2.529-34.568,18.38c0,9.612,6.408,14.165,13.996,14.165
		c10.623,0,17.368-6.745,19.729-13.659c0.506-1.518,0.843-3.203,0.843-4.722V858.499z"/>
	<path d="M1792.7,853.609h41.145c-1.349-13.996-9.949-25.463-28.161-25.463c-8.6,0-15.176,2.529-19.56,4.553l-3.204-9.611
		c7.082-4.047,16.525-6.408,25.125-6.408c11.804,0,22.427,4.048,29.678,11.636c6.914,7.251,11.129,18.043,11.129,31.364
		c0,23.775-15.682,42.324-43.336,42.324c-8.769,0-17.2-2.191-23.776-5.564l2.866-10.623c3.878,1.687,10.792,4.384,20.404,4.384
		c16.356,0,27.317-10.286,28.666-26.474H1792.7V853.609z"/>
	<path d="M1929.454,818.535v81.614h-14.67V830.17h-27.992v21.247c0,22.933-2.192,38.277-12.815,45.191
		c-4.047,3.204-8.6,5.059-16.188,5.059l-1.518-11.635c2.867-0.506,6.07-1.687,8.094-3.373c7.588-5.564,8.431-17.031,8.431-35.242
		v-32.882H1929.454z"/>
	<path d="M1961.999,862.04c0.337,20.066,13.153,28.329,27.992,28.329c10.624,0,17.031-1.854,22.596-4.216l2.529,10.624
		c-5.227,2.36-14.165,5.059-27.148,5.059c-25.125,0-40.133-16.525-40.133-41.145s14.502-44.012,38.278-44.012
		c26.643,0,33.725,23.439,33.725,38.447c0,3.035-0.337,5.396-0.506,6.913H1961.999z M2005.504,851.417
		c0.168-9.443-3.878-24.113-20.572-24.113c-15.008,0-21.584,13.827-22.765,24.113H2005.504z"/>
	<path d="M2052.888,818.535v35.411h3.541l30.69-35.411h18.043l-35.58,36.929c13.153,1.349,21.078,10.117,27.486,24.788
		c2.192,5.396,5.059,13.321,8.769,19.897h-15.514c-2.192-3.541-5.059-9.949-7.588-16.694c-5.565-13.152-13.153-19.223-26.98-19.223
		h-2.867v35.917h-14.67v-81.614H2052.888z"/>
	<path d="M2176.996,818.535v11.804h-25.462v69.811h-14.67v-69.811h-25.462v-11.804H2176.996z"/>
	<path d="M2189.982,845.177c0-10.455-0.337-18.886-0.674-26.643h13.321l0.674,13.996h0.337c6.07-9.949,15.682-15.852,29.003-15.852
		c19.729,0,34.568,16.694,34.568,41.482c0,29.341-17.875,43.842-37.098,43.842c-10.792,0-20.235-4.721-25.125-12.815h-0.337v44.349
		h-14.67V845.177z M2204.653,866.93c0,2.191,0.337,4.215,0.674,6.07c2.698,10.286,11.635,17.368,22.259,17.368
		c15.682,0,24.788-12.815,24.788-31.533c0-16.356-8.6-30.353-24.282-30.353c-10.118,0-19.561,7.251-22.427,18.381
		c-0.506,1.854-1.012,4.047-1.012,6.07V866.93z"/>
	<path d="M2359.787,858.668c0,30.184-20.91,43.336-40.639,43.336c-22.09,0-39.121-16.188-39.121-41.987
		c0-27.317,17.875-43.337,40.47-43.337C2343.936,816.679,2359.787,833.711,2359.787,858.668z M2295.035,859.51
		c0,17.874,10.286,31.364,24.788,31.364c14.165,0,24.788-13.321,24.788-31.701c0-13.827-6.914-31.364-24.451-31.364
		S2295.035,843.997,2295.035,859.51z"/>
	<path d="M2392.839,818.535v32.882h38.784v-32.882h14.67v81.614h-14.67V863.22h-38.784v36.929h-14.67v-81.614H2392.839z"/>
	<path d="M2484.908,818.535v32.882h38.784v-32.882h14.67v81.614h-14.67V863.22h-38.784v36.929h-14.67v-81.614H2484.908z"/>
	<path d="M2576.978,818.535v27.823c3.203-0.675,7.925-1.012,13.321-1.012c17.537,0,35.242,7.251,35.242,27.316
		c0,8.601-3.204,14.502-8.431,18.887c-8.938,7.588-22.09,9.442-32.882,9.442c-8.263,0-15.852-0.506-21.922-1.18v-81.277H2576.978z
		 M2576.978,889.863c2.866,0.337,6.07,0.675,10.286,0.675c11.298,0,23.607-4.722,23.607-17.369
		c0-13.152-11.804-17.199-22.934-17.199c-4.215,0-7.925,0.337-10.96,0.843V889.863z M2650.499,818.535v81.614h-14.671v-81.614
		H2650.499z"/>
	<path d="M2681.696,818.535l11.635,17.537c3.035,4.553,5.564,8.769,8.263,13.321h0.506c2.698-4.891,5.396-9.106,8.094-13.49
		l11.467-17.368h16.02l-27.823,39.458l28.666,42.156h-16.862l-11.973-18.38c-3.204-4.722-5.901-9.274-8.769-14.165h-0.337
		c-2.698,4.891-5.564,9.274-8.6,14.165l-11.804,18.38h-16.357l29.004-41.65l-27.654-39.964H2681.696z"/>
	<path d="M2833.796,900.149l-1.181-10.286h-0.506c-4.553,6.408-13.321,12.141-24.956,12.141c-16.525,0-24.956-11.635-24.956-23.438
		c0-19.729,17.536-30.521,49.069-30.353v-1.687c0-6.745-1.854-18.886-18.549-18.886c-7.588,0-15.514,2.36-21.247,6.07l-3.372-9.78
		c6.745-4.384,16.525-7.251,26.812-7.251c24.956,0,31.026,17.031,31.026,33.388v30.521c0,7.082,0.338,13.996,1.35,19.561H2833.796z
		 M2831.603,858.499c-16.188-0.337-34.567,2.529-34.567,18.38c0,9.612,6.407,14.165,13.995,14.165
		c10.624,0,17.369-6.745,19.729-13.659c0.506-1.518,0.843-3.203,0.843-4.722V858.499z"/>
	<path d="M2884.552,818.535v35.411h3.542l30.689-35.411h18.043l-35.58,36.929c13.152,1.349,21.078,10.117,27.486,24.788
		c2.191,5.396,5.059,13.321,8.768,19.897h-15.513c-2.192-3.541-5.059-9.949-7.589-16.694c-5.564-13.152-13.152-19.223-26.979-19.223
		h-2.867v35.917h-14.67v-81.614H2884.552z"/>
	<path d="M3008.66,818.535v11.804h-25.463v69.811h-14.67v-69.811h-25.463v-11.804H3008.66z"/>
	<path d="M3030.581,818.535l17.874,48.227c1.854,5.396,3.878,11.804,5.228,16.693h0.337c1.518-4.89,3.204-11.129,5.228-17.03
		l16.188-47.89h15.683l-22.259,58.176c-10.623,27.991-17.874,42.324-27.991,51.093c-7.251,6.408-14.502,8.938-18.212,9.611
		l-3.71-12.478c3.71-1.181,8.6-3.541,12.984-7.251c4.047-3.204,9.105-8.938,12.479-16.525c0.674-1.518,1.18-2.698,1.18-3.541
		s-0.337-2.023-1.012-3.879l-30.184-75.206H3030.581z"/>
	<path d="M3148.62,900.149l-1.181-10.286h-0.506c-4.553,6.408-13.321,12.141-24.956,12.141c-16.525,0-24.956-11.635-24.956-23.438
		c0-19.729,17.536-30.521,49.069-30.353v-1.687c0-6.745-1.854-18.886-18.549-18.886c-7.588,0-15.514,2.36-21.247,6.07l-3.372-9.78
		c6.745-4.384,16.525-7.251,26.812-7.251c24.956,0,31.026,17.031,31.026,33.388v30.521c0,7.082,0.338,13.996,1.35,19.561H3148.62z
		 M3146.427,858.499c-16.188-0.337-34.567,2.529-34.567,18.38c0,9.612,6.407,14.165,13.995,14.165
		c10.624,0,17.369-6.745,19.729-13.659c0.506-1.518,0.843-3.203,0.843-4.722V858.499z"/>
	<path d="M3238.67,818.535v11.804h-25.463v69.811h-14.67v-69.811h-25.463v-11.804H3238.67z"/>
	<path d="M3323.321,858.668c0,30.184-20.909,43.336-40.639,43.336c-22.09,0-39.12-16.188-39.12-41.987
		c0-27.317,17.874-43.337,40.47-43.337C3307.47,816.679,3323.321,833.711,3323.321,858.668z M3258.569,859.51
		c0,17.874,10.286,31.364,24.788,31.364c14.165,0,24.788-13.321,24.788-31.701c0-13.827-6.914-31.364-24.451-31.364
		C3266.158,827.809,3258.569,843.997,3258.569,859.51z"/>
	<path d="M3342.04,845.177c0-10.455-0.337-18.886-0.675-26.643h13.321l0.675,13.996h0.337c6.071-9.949,15.683-15.852,29.004-15.852
		c19.729,0,34.568,16.694,34.568,41.482c0,29.341-17.874,43.842-37.098,43.842c-10.792,0-20.235-4.721-25.125-12.815h-0.338v44.349
		h-14.67V845.177z M3356.71,866.93c0,2.191,0.338,4.215,0.675,6.07c2.698,10.286,11.636,17.368,22.259,17.368
		c15.682,0,24.788-12.815,24.788-31.533c0-16.356-8.601-30.353-24.282-30.353c-10.117,0-19.561,7.251-22.427,18.381
		c-0.506,1.854-1.013,4.047-1.013,6.07V866.93z"/>
	<path d="M3511.844,858.668c0,30.184-20.909,43.336-40.639,43.336c-22.09,0-39.12-16.188-39.12-41.987
		c0-27.317,17.874-43.337,40.47-43.337C3495.994,816.679,3511.844,833.711,3511.844,858.668z M3447.093,859.51
		c0,17.874,10.286,31.364,24.788,31.364c14.165,0,24.788-13.321,24.788-31.701c0-13.827-6.914-31.364-24.451-31.364
		C3454.681,827.809,3447.093,843.997,3447.093,859.51z"/>
	<path d="M3530.226,819.547c5.733-1.012,16.356-1.855,25.968-1.855c13.659,0,36.255,2.192,36.255,20.404
		c0,10.117-7.757,16.356-17.031,18.38v0.337c11.972,1.687,20.74,8.432,20.74,20.235c0,21.415-26.979,24.113-42.999,24.113
		c-9.105,0-18.549-0.675-22.933-1.012V819.547z M3544.221,890.369c4.216,0.506,7.251,0.675,11.973,0.675
		c9.949,0,24.788-2.361,24.788-14.165s-11.804-14.333-25.969-14.333h-10.792V890.369z M3544.39,852.765h11.129
		c10.961,0,22.259-3.204,22.259-12.815c0-8.094-7.082-11.973-21.921-11.973c-4.891,0-7.926,0.338-11.467,0.675V852.765z"/>
</g>
</svg>
