<?xml version="1.0" encoding="utf-8"?>
<!-- Generator: Adobe Illustrator 16.0.0, SVG Export Plug-In . SVG Version: 6.00 Build 0)  -->
<!DOCTYPE svg PUBLIC "-//W3C//DTD SVG 1.1//EN" "http://www.w3.org/Graphics/SVG/1.1/DTD/svg11.dtd">
<svg version="1.1" id="Слой_1" xmlns="http://www.w3.org/2000/svg" xmlns:xlink="http://www.w3.org/1999/xlink" x="0px" y="0px"
	 width="3610.958px" height="351.035px" viewBox="0 0 3610.958 351.035" enable-background="new 0 0 3610.958 351.035"
	 xml:space="preserve">
<g>
	<defs>
		<path id="SVGID_1_" d="M-724.816-134.926c-39.903,6.636-79.428,21.07-109.936,47.632c-10.952,9.534-20.551,20.594-28.564,32.697
			c-63.893,96.507-9.076,215.376,54.129,296.219c-1.614-2.065-3.067-4.261-4.515-6.442c-46.25-69.75-46.44-160.046-5.083-232.042
			c46.588-81.104,131.862-107.34,220.904-103.179c25.063,1.171,50.007,4.422,74.612,9.296c22.603,4.476,46.188,8.023,67.269,17.673
			c-63.027-41.847-138.369-66.353-213.729-66.352C-688.148-139.422-706.575-137.958-724.816-134.926"/>
	</defs>
	<clipPath id="SVGID_2_">
		<use xlink:href="#SVGID_1_"  overflow="visible"/>
	</clipPath>
	
		<linearGradient id="SVGID_3_" gradientUnits="userSpaceOnUse" x1="-1074.6929" y1="811.2476" x2="-1073.6929" y2="811.2476" gradientTransform="matrix(-118.0799 319.0503 319.0503 118.0799 -386364.5 246990.5)">
		<stop  offset="0" style="stop-color:#FFA100"/>
		<stop  offset="1" style="stop-color:#B65D00"/>
	</linearGradient>
	<polygon clip-path="url(#SVGID_2_)" fill="url(#SVGID_3_)" points="-331.964,-93.519 -512.767,395.006 -1051.244,195.717 
		-870.442,-292.809 	"/>
</g>
<g>
	<defs>
		<rect id="SVGID_4_" x="-1074.693" y="-186.271" width="4685.648" height="997.482"/>
	</defs>
	<clipPath id="SVGID_5_">
		<use xlink:href="#SVGID_4_"  overflow="visible"/>
	</clipPath>
	<path clip-path="url(#SVGID_5_)" fill="#8E8E8E" d="M-476.808-57.249c-57.698-28.364-120.139-40.886-183.644-25.986
		c-75.389,17.688-133.616,69.725-149.195,147.57c-9.483,47.382-1.318,96.572,16.374,141.052
		c1.441,3.624,28.376,62.307,31.824,60.488c0.008-0.005,28.162-14.864,28.164-14.865c-0.319,0.169-0.903-0.509-1.692-1.85
		l24.438-8.866l-3.766-10.382l-25.434,9.228c-6.092-14.182-14.922-37.892-20.385-53.28h29.187v-11.043h-33.004
		c-0.489-1.483-0.836-2.592-1.005-3.227c-4.457-16.688-7.181-34.557-7.956-52.728l31.872,2.566l0.887-11.007l-32.982-2.656
		c0.032-20.489,2.574-41.13,7.957-60.682l26.392,14.243l5.245-9.719l-28.336-15.292c6.443-19.091,15.768-36.864,28.305-52.073
		l23.578,25.874l8.163-7.439l-24.341-26.71c13.183-13.618,29.372-24.66,48.835-32.044l17.048,35.123l9.935-4.822l-16.442-33.875
		c18.636-5.657,38.56-8.304,58.892-8.702v25.837h11.043v-25.843c17.806,0.337,35.79,2.264,53.369,5.284v15.229h11.044v-13.179
		c16.925,3.363,25.532,5.657,40.902,10.408L-476.808-57.249z"/>
	<path clip-path="url(#SVGID_5_)" fill="#FFFFFF" stroke="#000000" stroke-miterlimit="10" d="M31.918,329.434V94.997h101.039
		c11.444,0,22.01,2.367,31.699,7.099c9.684,4.737,17.995,10.896,24.929,18.491c6.935,7.594,12.383,16.293,16.345,26.085
		c3.962,9.797,5.943,19.646,5.943,29.552c0,10.349-1.872,20.421-5.612,30.213c-3.747,9.797-8.973,18.491-15.685,26.085
		c-6.717,7.594-14.858,13.651-24.434,18.161c-9.576,4.514-20.09,6.769-31.534,6.769H96.306v71.982H31.918z M96.306,201.319h34.01
		c3.962,0,7.646-1.816,11.061-5.448c3.411-3.633,5.118-10.179,5.118-19.646c0-9.684-1.981-16.288-5.943-19.811
		c-3.962-3.519-7.925-5.283-11.887-5.283H96.306V201.319z"/>
	<polygon clip-path="url(#SVGID_5_)" fill="#FFFFFF" stroke="#000000" stroke-miterlimit="10" points="435.161,273.301 
		435.161,329.434 268.083,329.434 268.083,94.997 432.189,94.997 432.189,151.13 332.471,151.13 332.471,184.149 417.661,184.149 
		417.661,236.32 332.471,236.32 332.471,273.301 	"/>
	<polygon clip-path="url(#SVGID_5_)" fill="#FFFFFF" stroke="#000000" stroke-miterlimit="10" points="676.505,329.434 
		676.505,205.942 637.212,292.783 602.872,292.783 563.579,205.942 563.579,329.434 499.192,329.434 499.192,94.997 569.523,94.997 
		620.042,205.281 670.892,94.997 740.893,94.997 740.893,329.434 	"/>
	<path clip-path="url(#SVGID_5_)" fill="#FFFFFF" stroke="#000000" stroke-miterlimit="10" d="M907.617,320.188
		c-17.83,0-34.01-3.411-48.538-10.236c-14.529-6.821-26.968-15.794-37.312-26.911c-10.349-11.113-18.382-23.826-24.104-38.137
		c-5.727-14.307-8.585-29.057-8.585-44.247c0-15.404,2.972-30.263,8.915-44.575c5.943-14.307,14.25-26.911,24.93-37.808
		c10.674-10.895,23.33-19.589,37.972-26.085c14.637-6.49,30.651-9.74,48.043-9.74c17.831,0,34.01,3.415,48.539,10.236
		c14.528,6.825,26.961,15.849,37.311,27.076c10.344,11.226,18.326,23.995,23.939,38.302c5.612,14.312,8.42,28.948,8.42,43.915
		c0,15.412-2.972,30.214-8.915,44.412c-5.943,14.198-14.199,26.746-24.765,37.641c-10.566,10.897-23.17,19.647-37.806,26.251
		C941.019,316.886,925.004,320.188,907.617,320.188 M854.456,201.318c0,7.925,1.099,15.576,3.302,22.949
		c2.198,7.378,5.5,13.925,9.906,19.645c4.4,5.728,9.957,10.351,16.675,13.869c6.712,3.524,14.693,5.283,23.938,5.283
		c9.246,0,17.279-1.816,24.104-5.448c6.821-3.631,12.383-8.363,16.676-14.199c4.292-5.829,7.48-12.49,9.575-19.976
		c2.09-7.481,3.137-15.075,3.137-22.784c0-7.924-1.104-15.569-3.302-22.948c-2.203-7.371-5.562-13.867-10.071-19.481
		c-4.515-5.613-10.127-10.122-16.84-13.537c-6.718-3.411-14.585-5.119-23.609-5.119c-9.245,0-17.227,1.765-23.939,5.284
		c-6.717,3.523-12.274,8.202-16.675,14.032c-4.406,5.835-7.651,12.44-9.74,19.812C855.498,186.078,854.456,193.616,854.456,201.318"
		/>
	<polygon clip-path="url(#SVGID_5_)" fill="#FFFFFF" stroke="#000000" stroke-miterlimit="10" points="1288.32,84.1 
		1288.32,318.538 1223.931,318.538 1223.931,226.744 1145.345,226.744 1145.345,318.538 1080.958,318.538 1080.958,84.1 
		1145.345,84.1 1145.345,170.611 1223.931,170.611 1223.931,84.1 	"/>
	<polygon clip-path="url(#SVGID_5_)" fill="#FFFFFF" stroke="#000000" stroke-miterlimit="10" points="1545.45,142.76 
		1478.088,142.76 1478.088,321.064 1413.701,321.064 1413.701,142.76 1346.011,142.76 1346.011,86.626 1545.45,86.626 	"/>
	<polygon clip-path="url(#SVGID_5_)" fill="#FFFFFF" stroke="#000000" stroke-miterlimit="10" points="1884.071,145.393 
		1819.615,145.393 1819.615,316.01 1758.003,316.01 1758.003,145.393 1693.231,145.393 1693.231,91.68 1884.071,91.68 	"/>
	<path clip-path="url(#SVGID_5_)" fill="#FFFFFF" stroke="#000000" stroke-miterlimit="10" d="M1962.008,321.064
		c-2.504,0-5.428-0.21-8.762-0.626c-3.339-0.421-6.883-1.149-10.637-2.189c-3.754-1.042-7.406-2.347-10.951-3.912
		c-3.548-1.564-6.678-3.49-9.386-5.789l12.828-49.746c0.206,0.42,0.938,1.15,2.19,2.19c1.25,1.046,2.815,2.088,4.692,3.129
		c1.878,1.046,3.961,1.984,6.258,2.815c2.292,0.837,4.795,1.252,7.509,1.252c4.586,0,8.447-1.144,11.576-3.441
		c3.129-2.292,5.108-5.525,5.945-9.7l-82.286-158.314h67.267l42.238,99.182l38.796-99.182h64.142l-78.219,168.952
		c-4.592,10.013-9.025,18.514-13.299,25.5c-4.276,6.99-8.867,12.671-13.766,17.051c-4.904,4.381-10.223,7.617-15.957,9.699
		C1976.449,320.017,1969.723,321.064,1962.008,321.064"/>
	<path clip-path="url(#SVGID_5_)" fill="#FFFFFF" stroke="#000000" stroke-miterlimit="10" d="M2123.222,321.064V96.733h96.683
		c10.95,0,21.062,2.266,30.331,6.793c9.268,4.533,17.22,10.427,23.857,17.694c6.635,7.267,11.847,15.591,15.638,24.96
		c3.792,9.375,5.688,18.8,5.688,28.279c0,9.903-1.792,19.54-5.372,28.91c-3.583,9.375-8.585,17.694-15.008,24.96
		c-6.429,7.268-14.219,13.064-23.381,17.378c-9.162,4.321-19.224,6.478-30.175,6.478h-36.649v68.879H2123.222z M2184.834,198.472
		h32.544c3.791,0,7.314-1.738,10.584-5.213c3.264-3.476,4.896-9.741,4.896-18.8c0-9.266-1.895-15.586-5.686-18.957
		c-3.791-3.367-7.583-5.055-11.374-5.055h-30.964V198.472z"/>
	<path clip-path="url(#SVGID_5_)" fill="#FFFFFF" stroke="#000000" stroke-miterlimit="10" d="M2324.482,96.873h171.354v53.646
		h-109.818v33.134h46.073c26.926,0,47.227,5.947,60.904,17.83c13.674,11.887,20.512,28.351,20.512,49.386
		c0,21.882-6.523,39.026-19.565,51.437c-13.046,12.416-32.61,18.618-58.693,18.618h-110.766V96.873z M2426.411,269.171
		c7.992,0,14.043-1.681,18.146-5.049c4.101-3.363,6.153-7.993,6.153-13.886c0-5.048-2.053-9.411-6.153-13.094
		c-4.103-3.679-10.153-5.523-18.146-5.523h-40.394v37.552H2426.411z"/>
	<polygon clip-path="url(#SVGID_5_)" fill="#FFFFFF" stroke="#000000" stroke-miterlimit="10" points="2609.282,225.012 
		2704.702,96.733 2749.567,96.733 2749.567,321.064 2687.956,321.064 2687.956,196.576 2593.483,321.064 2547.669,321.064 
		2547.669,96.733 2609.282,96.733 	"/>
	<polygon clip-path="url(#SVGID_5_)" fill="#FFFFFF" stroke="#000000" stroke-miterlimit="10" points="2992.415,96.733 
		2992.415,321.064 2930.802,321.064 2930.802,233.228 2855.603,233.228 2855.603,321.064 2793.993,321.064 2793.993,96.733 
		2855.603,96.733 2855.603,179.514 2930.802,179.514 2930.802,96.733 	"/>
	<path clip-path="url(#SVGID_5_)" fill="#FFFFFF" stroke="#000000" stroke-miterlimit="10" d="M3343.248,257.08v64.857h-232.669
		v-51.225l111.852-101.21c10.813-9.915,18.071-18.383,21.773-25.406c3.695-7.023,5.55-14.11,5.55-21.275
		c0-9.36-3.276-16.66-9.819-21.895c-6.551-5.228-16.083-7.848-28.603-7.848c-11.101,0-21.279,2.414-30.525,7.229
		c-9.252,4.821-16.864,11.773-22.84,20.861l-62.756-33.874c11.667-18.725,28.028-33.462,49.095-44.202
		c21.059-10.741,45.96-16.112,74.711-16.112c22.766,0,42.904,3.583,60.407,10.741c17.504,7.165,31.165,17.422,40.983,30.776
		c9.819,13.362,14.729,28.854,14.729,46.475c0,15.698-3.489,30.505-10.46,44.409c-6.979,13.91-20.425,29.678-40.343,47.3
		l-56.354,50.399H3343.248z"/>
	<path clip-path="url(#SVGID_5_)" fill="#FFFFFF" stroke="#000000" stroke-miterlimit="10" d="M3563.449,263.28h33.124v-71.769
		h-31.055v-48.996h-51.756h-37.265v48.996h-31.743l64.178-152.508h-87.641l-64.868,153.198v71.769h122.835
		c0,0-0.691,57.967,0,57.967h84.19V263.28z"/>
	<path clip-path="url(#SVGID_5_)" d="M-76.971-75.314c0,0-7.853-29.704-20.258-37.899c-12.405-8.194-23.217,1.821-23.217,1.821
		h-64.417c-9.674,1.821-12.747,14.34-12.747,14.34l-205.922,16.237c-10.766,0.794-21.517,1.791-32.244,2.998
		c-5.698,0.641-11.334,1.242-16.963,2.447c-5.777,1.236-11.471,2.858-17.031,4.854c-3.174,1.139-6.274,2.438-9.369,3.774
		c-2.882,1.243-5.989,2.176-8.918,3.397c-2.36,0.99-5.262,1.82-7.393,3.24c-8.453,3.876-16.714,8.175-24.731,12.89
		c-7.499,4.41-14.784,9.182-21.82,14.3c-6.581,4.787-12.942,9.876-19.058,15.244c-5.702,5.006-11.191,10.255-16.449,15.725
		c-4.865,5.063-9.532,10.315-13.989,15.741c-4.072,4.957-7.969,10.058-11.681,15.29c-3.327,4.69-6.504,9.484-9.524,14.377
		c-2.628,4.259-5.137,8.592-7.516,12.996c-1.981,3.669-3.872,7.386-5.661,11.153c-1.384,2.917-2.708,5.863-3.954,8.842
		c-0.84,2.007-1.647,4.029-2.401,6.07c-0.346,0.937-0.686,1.879-0.996,2.829c-0.016,0.05-0.032,0.099-0.048,0.149
		c0,0-64.644,152.962,27.314,283.161c91.959,130.2,224.891,92.869,224.891,92.869s118.363-23.671,179.365-152.96
		c61.003-129.29,9.105-228.988,9.105-228.988l75.874-0.607c4.401,3.641,11.988,3.338,11.988,3.338s15.934,5.463,30.957-46.434
		C-58.761-16.018-76.971-75.314-76.971-75.314 M-330.313,116.23l8.309,15.364h-28.226l-6.032-15.364H-330.313z M-358.994,110.653
		l-6.146-11.495l23.673,0.797c0,0,7.284,10.584,7.284,10.698S-358.994,110.653-358.994,110.653 M-317.794,161.982
		c0,0,0.172,2.32,0.191,6.449c3.318,163.283-123.106,178.095-123.106,178.095c116.293-37.955,123.236-150.001,123.106-178.095
		C-317.646,166.304-317.707,164.159-317.794,161.982 M-342.833,297.189c56.45-70.563,29.591-146.588,29.591-146.588
		C-337.37,65.015-417.948,48.626-417.948,48.626l-12.292-7.739c70.563,5.008,101.975,54.629,101.975,54.629
		c61.913,79.668,17.299,168.895,17.299,168.895c-58.727,119.274-160.701,90.139-160.701,90.139
		C-374.7,350.452-342.833,297.189-342.833,297.189 M-350.833,230.522C-373.5,314.574-452.191,366.447-526.595,346.38
		c-74.404-20.064-116.344-104.47-93.676-188.521C-597.603,73.806-518.911,21.934-444.507,42
		C-370.104,62.065-328.165,146.469-350.833,230.522 M-550.828,365.727c217.14,103.106,281.094-80.573,281.094-80.573
		c38.688-95.597-6.33-212.4-6.33-212.4c27.315-0.911,32.51,7.55,32.51,7.55c41.653,119.495-15.022,230.114-15.022,230.114
		C-373.975,489.32-552.678,364.849-550.828,365.727 M-337.598,46.577c2.049,0,124.282-10.015,124.282-10.015
		s-0.783,17.982,11.445,31.64c0,0-8.941-7.512-15.542-18.21L-337.598,46.577z M-555.887-5.32
		c6.757-7.29,14.324-13.804,22.325-19.688c7.974-5.863,16.394-11.11,25.068-15.872c8.189-4.495,16.613-8.559,25.187-12.263
		c5.739-2.479,11.547-4.795,17.41-6.962c5.364-1.982,10.765-4.097,16.256-5.808c5.799-1.807,11.708-3.257,17.683-4.342
		c5.974-1.084,11.955-1.555,17.975-2.135c1.802-0.174,3.603-0.348,5.404-0.521l15.117-1.458c5.885-0.567,11.769-1.134,17.652-1.702
		c6.504-0.627,13.008-1.254,19.512-1.88l20.695-1.996c7.068-0.681,14.137-1.362,21.204-2.044c7.014-0.676,14.026-1.352,21.04-2.028
		c6.732-0.649,13.465-1.299,20.198-1.948c6.227-0.6,12.455-1.2,18.682-1.801c5.497-0.53,10.995-1.059,16.492-1.59
		c4.542-0.438,9.083-0.875,13.625-1.313c3.361-0.324,6.723-0.648,10.085-0.972c1.956-0.189,3.912-0.378,5.868-0.566
		c0.413-0.04,0.826-0.08,1.238-0.119c-6.145,14.965-6.145,63.335-6.145,63.335l-121.55,7.057
		c-36.647,2.731-76.665,6.221-76.665,6.221C-525.563,0.251-559.529,39.977-559.529,39.977
		c38.241-61.003,150.686-77.392,150.686-77.392l180.276-16.389l3.642-20.941c0,0-116.997,10.471-191.202,19.576
		c-19.401,2.38-38.806,6.032-57.348,12.326c-5.56,1.887-11.097,3.889-16.414,6.392c-4.766,2.244-8.915,5.293-13.511,7.869
		c-9.443,5.293-18.527,11.226-27.176,17.737c-15.74,11.852-30.039,25.619-42.44,40.931c-40.247,49.693-59.21,113.495-68.039,176.831
		c0.33-2.372-0.174-5.149-0.205-7.555c-0.035-2.624-0.031-5.248,0.011-7.871c0.083-5.245,0.318-10.488,0.702-15.72
		c0.767-10.464,2.129-20.884,4.063-31.196c3.87-20.633,10.027-40.835,18.294-60.131c8.265-19.29,18.642-37.682,30.954-54.68
		C-578.084,17.13-567.991,4.603-555.887-5.32 M-642.687,253.637c62.769,193.626,213.989,187.267,250.426,182.733
		c2.643-0.38,5.304-0.786,8.001-1.242c0,0-2.86,0.604-8.001,1.242C-605.958,467.133-642.687,253.637-642.687,253.637
		 M-213.543,294.913c-63.734,161.156-214.875,158.424-214.875,158.424c132.652-16.861,183.499-113.557,183.499-113.557
		c86.72-139.981,27.734-259.742,27.734-259.742h12.747C-165.743,202.954-213.543,294.913-213.543,294.913 M-149.051-1.906
		l-41.731,0.759v-6.677l41.731-1.669V-1.906z M-149.051-12.984l-41.731,1.366l0.607-21.852l41.124-1.213V-12.984z M-141.729-89.654
		c0,0-37.33,2.504-37.672,2.504c-0.341,0,3.984-7.854,3.984-7.854l37.102-2.504L-141.729-89.654z M-175.758-99.783
		c0,0-27.012,30.957-14.417,163.432c0,0-17.906-64.644-9.408-121.702c0,0,3.49-41.123,16.692-49.469l51.519,0.607
		C-131.372-106.915-127.806-103.425-175.758-99.783 M-105.65,69.112c-14.206,0-25.721-37.978-25.721-84.827
		c0-46.849,11.515-84.827,25.721-84.827c14.205,0,25.721,37.978,25.721,84.827C-79.93,31.134-91.446,69.112-105.65,69.112"/>
	<path clip-path="url(#SVGID_5_)" d="M-126.819-15.715c0,24.729,3.228,46.811,8.286,61.352c-1.617-10.921-2.531-23.325-2.531-36.48
		c0-43.789,10.121-79.288,22.605-79.288c5.435,0,10.421,6.728,14.32,17.937c-3.764-25.433-11.341-42.809-20.075-42.809
		C-116.699-95.003-126.819-59.505-126.819-15.715"/>
	<path clip-path="url(#SVGID_5_)" d="M-604.722,162.052c-20.308,75.302,16.925,150.829,83.162,168.691
		c66.237,17.863,136.395-28.701,156.704-104.004c20.308-75.304-16.925-150.829-83.162-168.693
		C-514.254,40.184-584.413,86.748-604.722,162.052 M-605.167,192.824l46.662,3.642c-0.682,13.43,0.911,39.151,0.911,39.151
		l-45.069-4.325C-606.418,218.773-605.167,192.824-605.167,192.824 M-599.817,248.022l-1.935-10.356l44.842,3.072
		c0,2.732,2.731,10.813,2.959,11.155C-553.724,252.233-599.817,248.022-599.817,248.022 M-391.392,104.931l14.568,21.845
		l-35.206,55.843l43.4-32.777c2.428,6.07,3.49,25.185,3.49,25.185l-39.91,22.16l39.91-2.997l-2.883,23.028l-39.151-2.997
		L-371.967,233l-8.499,21.253l-34.294-26.413l25.206,44.614l-16.405,19.12l-20.638-53.908l2.42,71.207
		c-7.291,6.677-24.575,9.408-24.575,9.408l8.043-82.664c0,0-35.054,79.933-35.965,79.933c-0.91,0-20.637-10.926-22.762-11.229
		c-2.124-0.303,47.345-77.088,47.345-77.088l-61.381,48.256l-13.582-23.577l69.197-37.691l-68.893,6.335l-2.732-27.732l71.929,4.97
		l-58.271-33.081l7.89-27.011l57.665,45.221l-35.282-64.038l18.286-19.727l29.135,75.869l-2.579-80.118l24.735-7.284l-8.203,87.402
		L-391.392,104.931z M-425.383,72.685c-28.528-6.138-119.577,25.866-122.309,130.269c-2.731,104.401,71.625,125.95,71.625,125.95
		c-102.581-26.1-74.774-159.335-74.774-159.335C-511.199,50.902-425.383,72.685-425.383,72.685"/>
	<path clip-path="url(#SVGID_5_)" d="M-392.26,436.37c5.141-0.64,8.001-1.241,8.001-1.241
		C-386.957,435.584-389.618,435.99-392.26,436.37"/>
	<path clip-path="url(#SVGID_5_)" d="M-317.604,168.431c-0.019-4.129-0.19-6.45-0.19-6.45
		C-317.707,164.159-317.647,166.304-317.604,168.431"/>
	<path clip-path="url(#SVGID_5_)" d="M-448.253,201.836c-2.385,9.886,2.796,19.618,11.573,21.735
		c8.777,2.118,17.825-4.18,20.211-14.067c2.385-9.886-2.796-19.618-11.573-21.735C-436.819,185.651-445.868,191.949-448.253,201.836
		 M-419.214,208.842c-1.973,8.179-9.459,13.389-16.72,11.637c-7.261-1.752-11.548-9.802-9.574-17.981
		c1.973-8.179,9.459-13.389,16.72-11.637C-421.528,192.613-417.241,200.663-419.214,208.842"/>
	<path clip-path="url(#SVGID_5_)" d="M-422.5,203.23c-1.181-2.847-3.486-5.038-6.485-5.762c-5.316-1.282-10.796,2.532-12.241,8.52
		c-0.376,1.56-0.439,3.112-0.236,4.579c-0.913-2.201-1.154-4.793-0.525-7.403c1.445-5.988,6.925-9.803,12.242-8.52
		C-425.814,195.593-423.076,199.064-422.5,203.23"/>
	<path clip-path="url(#SVGID_5_)" d="M-441.987,203.164c-0.629,2.61-0.388,5.202,0.524,7.403c-0.202-1.467-0.139-3.019,0.237-4.579
		c1.445-5.988,6.925-9.803,12.241-8.52c2.999,0.724,5.304,2.915,6.485,5.762c-0.576-4.166-3.314-7.637-7.245-8.586
		C-435.062,193.361-440.542,197.176-441.987,203.164"/>
	<path clip-path="url(#SVGID_5_)" d="M-751.131-160.608c0,0-359.131,11.736-239.421,335.659
		c119.711,323.921,488.231,387.297,488.231,387.297s248.808,49.293,342.699-133.793c-12.854,25.065-42.636,47.1-65.4,61.847
		c-70.609,45.742-156.661,40.57-235.165,21.777c-73.612-17.62-143.837-48.384-207.03-90.012
		c-67.971-44.773-127.816-102.023-174.874-168.477c-37.466-52.906-72.046-111.191-85.362-175.399
		c-10.176-49.067-5.23-100.564,23.756-142.569C-868.568-115.187-808.65-143.296-751.131-160.608"/>
	<path clip-path="url(#SVGID_5_)" d="M34.734,413.572c7.082-1.179,16.356-2.19,28.16-2.19c14.502,0,25.125,3.372,31.87,9.441
		c6.239,5.397,9.949,13.659,9.949,23.777c0,10.286-3.035,18.38-8.768,24.282c-7.757,8.263-20.404,12.478-34.737,12.478
		c-4.385,0-8.431-0.169-11.804-1.011v45.528h-14.67V413.572z M49.404,468.376c3.204,0.843,7.251,1.181,12.141,1.181
		c17.706,0,28.498-8.602,28.498-24.283c0-15.007-10.624-22.258-26.812-22.258c-6.408,0-11.298,0.506-13.827,1.18V468.376z"/>
	<path clip-path="url(#SVGID_5_)" d="M127.479,487.767c0.337,20.066,13.152,28.329,27.991,28.329
		c10.624,0,17.032-1.854,22.596-4.216l2.529,10.624c-5.227,2.361-14.164,5.06-27.148,5.06c-25.125,0-40.133-16.525-40.133-41.146
		c0-24.619,14.502-44.011,38.278-44.011c26.642,0,33.725,23.438,33.725,38.447c0,3.034-0.337,5.395-0.506,6.912H127.479z
		 M170.984,477.145c0.168-9.443-3.878-24.113-20.572-24.113c-15.008,0-21.584,13.827-22.765,24.113H170.984z"/>
	<path clip-path="url(#SVGID_5_)" d="M204.541,444.263h18.211l14.839,41.145c2.024,6.07,5.565,16.019,7.42,22.426h0.337
		c1.855-6.069,6.408-19.054,9.612-27.991l13.152-35.579h18.381l5.733,81.613h-14.164l-1.855-38.952
		c-0.506-8.768-1.181-19.224-1.518-29.172h-0.506c-2.192,7.419-4.384,13.995-8.937,26.475l-15.682,41.144h-10.792L224.27,485.07
		c-2.529-7.757-6.07-19.562-8.094-27.149H215.5c-0.337,9.613-0.843,20.405-1.349,29.342l-2.023,38.614H198.47L204.541,444.263z"/>
	<path clip-path="url(#SVGID_5_)" d="M385.308,484.395c0,30.185-20.91,43.336-40.639,43.336c-22.09,0-39.121-16.187-39.121-41.986
		c0-27.318,17.874-43.337,40.47-43.337C369.457,442.408,385.308,459.438,385.308,484.395 M320.556,485.239
		c0,17.874,10.286,31.363,24.788,31.363c14.164,0,24.788-13.32,24.788-31.701c0-13.826-6.914-31.363-24.451-31.363
		C328.144,453.538,320.556,469.724,320.556,485.239"/>
	<polygon clip-path="url(#SVGID_5_)" points="418.36,444.263 418.36,477.145 457.144,477.145 457.144,444.263 471.813,444.263 
		471.813,525.876 457.144,525.876 457.144,488.949 418.36,488.949 418.36,525.876 403.689,525.876 403.689,444.263 	"/>
	<polygon clip-path="url(#SVGID_5_)" points="550.732,444.263 550.732,456.067 525.27,456.067 525.27,525.876 510.6,525.876 
		510.6,456.067 485.137,456.067 485.137,444.263 	"/>
	<path clip-path="url(#SVGID_5_)" d="M614.303,444.263v34.398c0,12.985-0.168,21.079-0.843,32.713l0.506,0.169
		c4.89-9.949,7.756-15.682,13.152-25.125l25.463-42.155h17.368v81.613h-14.164v-34.567c0-13.321,0.337-20.234,1.012-33.389h-0.506
		c-5.228,10.455-8.769,17.031-13.49,25.294c-7.757,12.647-16.694,28.329-25.463,42.662h-17.031v-81.613H614.303z"/>
	<polygon clip-path="url(#SVGID_5_)" points="796.923,444.263 796.923,525.876 782.084,525.876 782.084,456.067 744.143,456.067 
		744.143,525.876 729.473,525.876 729.473,444.263 	"/>
	<path clip-path="url(#SVGID_5_)" d="M821.036,470.905c0-10.454-0.338-18.886-0.675-26.643h13.322l0.674,13.997h0.337
		c6.071-9.95,15.682-15.852,29.004-15.852c19.729,0,34.568,16.693,34.568,41.481c0,29.341-17.874,43.842-37.098,43.842
		c-10.792,0-20.234-4.72-25.125-12.814h-0.337v44.348h-14.67V470.905z M835.707,492.659c0,2.19,0.337,4.215,0.674,6.069
		c2.699,10.286,11.636,17.368,22.259,17.368c15.682,0,24.788-12.814,24.788-31.533c0-16.355-8.6-30.352-24.282-30.352
		c-10.118,0-19.561,7.251-22.427,18.381c-0.506,1.854-1.012,4.046-1.012,6.07V492.659z"/>
	<path clip-path="url(#SVGID_5_)" d="M990.841,484.395c0,30.185-20.91,43.336-40.639,43.336c-22.09,0-39.121-16.187-39.121-41.986
		c0-27.318,17.874-43.337,40.47-43.337C974.99,442.408,990.841,459.438,990.841,484.395 M926.089,485.239
		c0,17.874,10.286,31.363,24.788,31.363c14.164,0,24.788-13.32,24.788-31.701c0-13.826-6.914-31.363-24.451-31.363
		C933.677,453.538,926.089,469.724,926.089,485.239"/>
	<path clip-path="url(#SVGID_5_)" d="M1071.616,444.263v70.484l8.431,0.168l-0.843,36.93h-11.635l-0.675-25.969h-56.489
		l-0.674,25.969h-11.636l-0.674-36.93l6.914-0.168c3.541-5.227,6.239-10.792,8.093-16.693c3.205-10.117,4.722-21.078,4.722-32.545
		v-21.246H1071.616z M1030.302,469.051c0,10.792-1.518,21.245-4.216,30.353c-1.686,5.564-4.047,10.623-6.576,15.175h37.603v-59.018
		h-26.811V469.051z"/>
	<path clip-path="url(#SVGID_5_)" d="M1142.946,525.876l-1.18-10.286h-0.506c-4.553,6.408-13.321,12.142-24.957,12.142
		c-16.524,0-24.956-11.636-24.956-23.439c0-19.729,17.537-30.521,49.07-30.352v-1.688c0-6.745-1.855-18.885-18.549-18.885
		c-7.588,0-15.513,2.36-21.247,6.07l-3.372-9.78c6.745-4.384,16.525-7.251,26.811-7.251c24.957,0,31.027,17.031,31.027,33.387
		v30.522c0,7.082,0.337,13.996,1.349,19.56H1142.946z M1140.753,484.227c-16.188-0.338-34.568,2.528-34.568,18.38
		c0,9.611,6.407,14.165,13.996,14.165c10.623,0,17.368-6.745,19.729-13.659c0.506-1.519,0.843-3.203,0.843-4.722V484.227z"/>
	<path clip-path="url(#SVGID_5_)" d="M1185.946,444.263l26.979,35.579h3.035v-35.579h14.165v35.579h2.866l26.979-35.579h17.032
		l-32.208,37.098c12.31,1.348,19.561,8.599,24.451,21.584c2.866,7.924,5.564,16.524,8.937,22.932h-14.839
		c-2.698-4.889-5.059-11.635-7.42-18.718c-5.058-13.321-12.646-17.368-23.27-17.368h-2.529v36.086h-14.165v-36.086h-2.698
		c-11.466,0-18.38,4.216-23.438,17.537c-2.697,7.082-4.891,13.491-7.756,18.549h-14.333c3.372-6.576,6.07-15.176,8.937-22.764
		c5.059-13.153,12.309-20.404,24.619-21.752l-32.376-37.098H1185.946z"/>
	<path clip-path="url(#SVGID_5_)" d="M1338.382,525.876l-1.18-10.286h-0.506c-4.554,6.408-13.321,12.142-24.957,12.142
		c-16.525,0-24.956-11.636-24.956-23.439c0-19.729,17.537-30.521,49.07-30.352v-1.688c0-6.745-1.855-18.885-18.55-18.885
		c-7.588,0-15.513,2.36-21.247,6.07l-3.371-9.78c6.744-4.384,16.524-7.251,26.811-7.251c24.957,0,31.027,17.031,31.027,33.387
		v30.522c0,7.082,0.337,13.996,1.349,19.56H1338.382z M1336.191,484.227c-16.188-0.338-34.568,2.528-34.568,18.38
		c0,9.611,6.407,14.165,13.996,14.165c10.623,0,17.368-6.745,19.729-13.659c0.506-1.519,0.843-3.203,0.843-4.722V484.227z"/>
	<polygon clip-path="url(#SVGID_5_)" points="1505.181,444.263 1505.181,456.067 1479.717,456.067 1479.717,525.876 
		1465.047,525.876 1465.047,456.067 1439.584,456.067 1439.584,444.263 	"/>
	<path clip-path="url(#SVGID_5_)" d="M1527.101,444.263l17.875,48.227c1.854,5.395,3.878,11.803,5.227,16.693h0.337
		c1.518-4.891,3.204-11.129,5.229-17.03l16.187-47.89h15.683l-22.259,58.176c-10.624,27.991-17.874,42.324-27.991,51.093
		c-7.252,6.408-14.502,8.937-18.211,9.611l-3.711-12.479c3.711-1.18,8.601-3.541,12.985-7.251
		c4.046-3.204,9.104-8.937,12.478-16.524c0.675-1.519,1.181-2.698,1.181-3.541c0-0.844-0.337-2.023-1.013-3.879l-30.183-75.206
		H1527.101z"/>
	<path clip-path="url(#SVGID_5_)" d="M1601.127,470.905c0-10.454-0.338-18.886-0.675-26.643h13.322l0.674,13.997h0.337
		c6.071-9.95,15.684-15.852,29.004-15.852c19.729,0,34.569,16.693,34.569,41.481c0,29.341-17.875,43.842-37.098,43.842
		c-10.792,0-20.235-4.72-25.125-12.814h-0.338v44.348h-14.671V470.905z M1615.798,492.659c0,2.19,0.338,4.215,0.675,6.069
		c2.697,10.286,11.635,17.368,22.259,17.368c15.681,0,24.787-12.814,24.787-31.533c0-16.355-8.601-30.352-24.282-30.352
		c-10.118,0-19.56,7.251-22.427,18.381c-0.506,1.854-1.012,4.046-1.012,6.07V492.659z"/>
	<path clip-path="url(#SVGID_5_)" d="M1758.792,416.609c-4.216,1.517-11.636,2.866-17.031,3.709
		c-13.154,2.022-22.765,6.408-29.004,15.345c-5.228,7.419-8.263,18.38-8.937,26.98h0.506c5.228-11.805,16.692-18.38,28.328-18.38
		c20.067,0,34.736,14.333,34.736,40.301c0,26.643-13.827,43.168-37.771,43.168c-28.666,0-38.108-27.486-38.108-54.634
		c0-18.55,3.878-33.727,12.646-45.191c7.927-11.298,19.225-16.526,35.074-19.223c6.576-1.013,14.67-2.361,20.235-4.386
		L1758.792,416.609z M1729.62,455.223c-8.769,0-15.008,4.554-18.381,11.13c-2.697,4.89-4.047,10.792-4.047,17.368
		c0,13.489,6.576,32.882,22.766,32.882c16.355,0,22.427-15.852,22.427-30.859C1752.384,472.422,1747.157,455.223,1729.62,455.223"/>
	<path clip-path="url(#SVGID_5_)" d="M1859.969,484.395c0,30.185-20.91,43.336-40.64,43.336c-22.09,0-39.12-16.187-39.12-41.986
		c0-27.318,17.873-43.337,40.47-43.337C1844.117,442.408,1859.969,459.438,1859.969,484.395 M1795.217,485.239
		c0,17.874,10.285,31.363,24.787,31.363c14.164,0,24.787-13.32,24.787-31.701c0-13.826-6.912-31.363-24.449-31.363
		S1795.217,469.724,1795.217,485.239"/>
	<path clip-path="url(#SVGID_5_)" d="M1893.358,444.263v35.41h3.541l30.689-35.41h18.043l-35.58,36.929
		c13.153,1.348,21.078,10.117,27.486,24.788c2.191,5.395,5.058,13.32,8.768,19.896h-15.513c-2.192-3.541-5.059-9.948-7.588-16.693
		c-5.565-13.152-13.153-19.224-26.979-19.224h-2.867v35.917h-14.67v-81.613H1893.358z"/>
	<path clip-path="url(#SVGID_5_)" d="M2032.305,484.395c0,30.185-20.909,43.336-40.64,43.336c-22.09,0-39.12-16.187-39.12-41.986
		c0-27.318,17.875-43.337,40.471-43.337C2016.454,442.408,2032.305,459.438,2032.305,484.395 M1967.553,485.239
		c0,17.874,10.285,31.363,24.787,31.363c14.164,0,24.789-13.32,24.789-31.701c0-13.826-6.914-31.363-24.451-31.363
		S1967.553,469.724,1967.553,485.239"/>
	<path clip-path="url(#SVGID_5_)" d="M2051.868,444.263h18.211l14.839,41.145c2.022,6.07,5.565,16.019,7.42,22.426h0.337
		c1.855-6.069,6.408-19.054,9.612-27.991l13.151-35.579h18.381l5.733,81.613h-14.164l-1.856-38.952
		c-0.506-8.768-1.18-19.224-1.518-29.172h-0.505c-2.192,7.419-4.384,13.995-8.937,26.475l-15.684,41.144h-10.792l-14.501-40.301
		c-2.529-7.757-6.07-19.562-8.094-27.149h-0.675c-0.337,9.613-0.843,20.405-1.35,29.342l-2.022,38.614h-13.659L2051.868,444.263z"/>
	<polygon clip-path="url(#SVGID_5_)" points="2225.889,444.263 2225.889,525.876 2211.049,525.876 2211.049,456.067 
		2173.11,456.067 2173.11,525.876 2158.439,525.876 2158.439,444.263 	"/>
	<path clip-path="url(#SVGID_5_)" d="M2250,470.905c0-10.454-0.336-18.886-0.674-26.643h13.322l0.673,13.997h0.338
		c6.071-9.95,15.683-15.852,29.003-15.852c19.73,0,34.569,16.693,34.569,41.481c0,29.341-17.874,43.842-37.098,43.842
		c-10.792,0-20.234-4.72-25.125-12.814h-0.337v44.348H2250V470.905z M2264.672,492.659c0,2.19,0.337,4.215,0.674,6.069
		c2.697,10.286,11.636,17.368,22.259,17.368c15.683,0,24.788-12.814,24.788-31.533c0-16.355-8.6-30.352-24.283-30.352
		c-10.117,0-19.56,7.251-22.426,18.381c-0.506,1.854-1.012,4.046-1.012,6.07V492.659z"/>
	<path clip-path="url(#SVGID_5_)" d="M2354.211,487.767c0.338,20.066,13.152,28.329,27.991,28.329
		c10.623,0,17.032-1.854,22.597-4.216l2.528,10.624c-5.227,2.361-14.165,5.06-27.147,5.06c-25.125,0-40.133-16.525-40.133-41.146
		c0-24.619,14.502-44.011,38.276-44.011c26.644,0,33.726,23.438,33.726,38.447c0,3.034-0.338,5.395-0.506,6.912H2354.211z
		 M2397.717,477.145c0.168-9.443-3.879-24.113-20.572-24.113c-15.008,0-21.584,13.827-22.766,24.113H2397.717z"/>
	<path clip-path="url(#SVGID_5_)" d="M2488.606,522.842c-3.879,2.022-12.479,4.722-23.438,4.722
		c-24.62,0-40.639-16.695-40.639-41.651c0-25.125,17.198-43.337,43.842-43.337c8.769,0,16.524,2.193,20.572,4.216l-3.372,11.468
		c-3.541-2.023-9.106-3.88-17.2-3.88c-18.717,0-28.834,13.827-28.834,30.858c0,18.886,12.14,30.522,28.328,30.522
		c8.431,0,13.996-2.192,18.212-4.048L2488.606,522.842z"/>
	<path clip-path="url(#SVGID_5_)" d="M2563.14,522.842c-3.878,2.022-12.479,4.722-23.438,4.722
		c-24.62,0-40.639-16.695-40.639-41.651c0-25.125,17.199-43.337,43.842-43.337c8.768,0,16.525,2.193,20.572,4.216l-3.372,11.468
		c-3.541-2.023-9.106-3.88-17.2-3.88c-18.717,0-28.834,13.827-28.834,30.858c0,18.886,12.14,30.522,28.328,30.522
		c8.431,0,13.996-2.192,18.212-4.048L2563.14,522.842z"/>
	<path clip-path="url(#SVGID_5_)" d="M2653.357,484.395c0,30.185-20.91,43.336-40.64,43.336c-22.09,0-39.121-16.187-39.121-41.986
		c0-27.318,17.875-43.337,40.471-43.337C2637.504,442.408,2653.357,459.438,2653.357,484.395 M2588.605,485.239
		c0,17.874,10.286,31.363,24.786,31.363c14.166,0,24.789-13.32,24.789-31.701c0-13.826-6.914-31.363-24.45-31.363
		C2596.193,453.538,2588.605,469.724,2588.605,485.239"/>
	<path clip-path="url(#SVGID_5_)" d="M2672.075,470.905c0-10.454-0.338-18.886-0.675-26.643h13.322l0.673,13.997h0.338
		c6.071-9.95,15.683-15.852,29.004-15.852c19.729,0,34.568,16.693,34.568,41.481c0,29.341-17.874,43.842-37.098,43.842
		c-10.792,0-20.234-4.72-25.125-12.814h-0.337v44.348h-14.671V470.905z M2686.746,492.659c0,2.19,0.337,4.215,0.674,6.069
		c2.698,10.286,11.636,17.368,22.259,17.368c15.682,0,24.788-12.814,24.788-31.533c0-16.355-8.601-30.352-24.283-30.352
		c-10.117,0-19.56,7.251-22.426,18.381c-0.506,1.854-1.012,4.046-1.012,6.07V492.659z"/>
	<path clip-path="url(#SVGID_5_)" d="M2841.88,484.395c0,30.185-20.91,43.336-40.64,43.336c-22.09,0-39.121-16.187-39.121-41.986
		c0-27.318,17.875-43.337,40.471-43.337C2826.028,442.408,2841.88,459.438,2841.88,484.395 M2777.128,485.239
		c0,17.874,10.286,31.363,24.786,31.363c14.166,0,24.789-13.32,24.789-31.701c0-13.826-6.914-31.363-24.45-31.363
		C2784.716,453.538,2777.128,469.724,2777.128,485.239"/>
	<path clip-path="url(#SVGID_5_)" d="M2860.261,445.274c5.732-1.011,16.356-1.854,25.969-1.854c13.659,0,36.255,2.191,36.255,20.403
		c0,10.117-7.757,16.357-17.032,18.381v0.337c11.972,1.686,20.741,8.432,20.741,20.234c0,21.415-26.98,24.114-42.999,24.114
		c-9.106,0-18.549-0.675-22.934-1.012V445.274z M2874.256,516.097c4.217,0.505,7.252,0.674,11.974,0.674
		c9.949,0,24.788-2.36,24.788-14.165c0-11.803-11.805-14.333-25.969-14.333h-10.793V516.097z M2874.426,478.494h11.129
		c10.961,0,22.259-3.204,22.259-12.815c0-8.094-7.082-11.973-21.921-11.973c-4.891,0-7.926,0.338-11.467,0.675V478.494z"/>
	<path clip-path="url(#SVGID_5_)" d="M2935.302,546.619c3.71-9.949,8.263-27.992,10.116-40.303l16.526-1.686
		c-3.879,14.333-11.298,33.05-16.021,40.976L2935.302,546.619z"/>
	<polygon clip-path="url(#SVGID_5_)" points="101.34,632.264 101.34,713.877 86.501,713.877 86.501,644.068 48.561,644.068 
		48.561,713.877 33.891,713.877 33.891,632.264 	"/>
	<path clip-path="url(#SVGID_5_)" d="M125.454,658.906c0-10.454-0.338-18.886-0.675-26.643h13.322l0.674,13.997h0.337
		c6.071-9.95,15.682-15.852,29.004-15.852c19.729,0,34.568,16.693,34.568,41.481c0,29.341-17.874,43.842-37.098,43.842
		c-10.792,0-20.234-4.72-25.125-12.814h-0.337v44.348h-14.67V658.906z M140.124,680.66c0,2.19,0.337,4.215,0.674,6.069
		c2.699,10.286,11.636,17.368,22.259,17.368c15.682,0,24.788-12.815,24.788-31.533c0-16.355-8.6-30.352-24.282-30.352
		c-10.118,0-19.562,7.251-22.427,18.381c-0.506,1.854-1.012,4.046-1.012,6.07V680.66z"/>
	<path clip-path="url(#SVGID_5_)" d="M295.258,672.396c0,30.185-20.91,43.336-40.639,43.336c-22.09,0-39.121-16.187-39.121-41.986
		c0-27.318,17.875-43.337,40.47-43.337C279.408,630.409,295.258,647.439,295.258,672.396 M230.506,673.239
		c0,17.874,10.286,31.364,24.788,31.364c14.164,0,24.788-13.321,24.788-31.701c0-13.826-6.914-31.363-24.451-31.363
		S230.506,657.725,230.506,673.239"/>
	<path clip-path="url(#SVGID_5_)" d="M376.033,632.264v70.484l8.431,0.168l-0.843,36.93h-11.635l-0.675-25.969h-56.489
		l-0.674,25.969h-11.636l-0.674-36.93l6.914-0.168c3.541-5.227,6.239-10.792,8.093-16.693c3.205-10.117,4.722-21.078,4.722-32.546
		v-21.245H376.033z M334.72,657.051c0,10.792-1.519,21.246-4.216,30.354c-1.686,5.563-4.047,10.623-6.576,15.175h37.603v-59.018
		H334.72V657.051z"/>
	<path clip-path="url(#SVGID_5_)" d="M447.363,713.877l-1.18-10.286h-0.506c-4.553,6.408-13.321,12.142-24.957,12.142
		c-16.525,0-24.956-11.636-24.956-23.439c0-19.729,17.537-30.521,49.07-30.352v-1.688c0-6.745-1.855-18.885-18.549-18.885
		c-7.588,0-15.513,2.36-21.247,6.07l-3.372-9.78c6.745-4.384,16.525-7.251,26.811-7.251c24.957,0,31.027,17.031,31.027,33.387
		v30.522c0,7.082,0.337,13.996,1.349,19.56H447.363z M445.17,672.227c-16.188-0.337-34.568,2.529-34.568,18.381
		c0,9.611,6.407,14.165,13.996,14.165c10.623,0,17.368-6.745,19.729-13.659c0.506-1.519,0.843-3.203,0.843-4.723V672.227z"/>
	<path clip-path="url(#SVGID_5_)" d="M490.363,632.264l26.98,35.579h3.035v-35.579h14.165v35.579h2.866l26.98-35.579h17.032
		l-32.208,37.098c12.31,1.348,19.561,8.599,24.451,21.584c2.866,7.924,5.564,16.524,8.937,22.932h-14.839
		c-2.698-4.889-5.059-11.635-7.42-18.718c-5.058-13.321-12.646-17.368-23.27-17.368h-2.529v36.086h-14.165v-36.086h-2.698
		c-11.466,0-18.38,4.216-23.439,17.537c-2.697,7.082-4.89,13.491-7.756,18.549h-14.333c3.372-6.576,6.07-15.176,8.937-22.764
		c5.059-13.153,12.309-20.404,24.619-21.752l-32.376-37.098H490.363z"/>
	<path clip-path="url(#SVGID_5_)" d="M642.8,713.877l-1.18-10.286h-0.506c-4.553,6.408-13.321,12.142-24.957,12.142
		c-16.525,0-24.956-11.636-24.956-23.439c0-19.729,17.537-30.521,49.07-30.352v-1.688c0-6.745-1.855-18.885-18.549-18.885
		c-7.588,0-15.513,2.36-21.247,6.07l-3.372-9.78c6.745-4.384,16.525-7.251,26.811-7.251c24.957,0,31.027,17.031,31.027,33.387
		v30.522c0,7.082,0.337,13.996,1.349,19.56H642.8z M640.608,672.227c-16.188-0.337-34.568,2.529-34.568,18.381
		c0,9.611,6.407,14.165,13.996,14.165c10.623,0,17.368-6.745,19.729-13.659c0.506-1.519,0.843-3.203,0.843-4.723V672.227z"/>
	<path clip-path="url(#SVGID_5_)" d="M718.007,667.338h41.145c-1.35-13.996-9.949-25.464-28.161-25.464
		c-8.6,0-15.176,2.529-19.56,4.554l-3.204-9.611c7.082-4.047,16.525-6.409,25.125-6.409c11.803,0,22.427,4.048,29.678,11.636
		c6.914,7.252,11.129,18.044,11.129,31.364c0,23.776-15.682,42.325-43.337,42.325c-8.768,0-17.199-2.192-23.775-5.565l2.866-10.622
		c3.878,1.687,10.792,4.384,20.404,4.384c16.356,0,27.317-10.286,28.666-26.475h-40.976V667.338z"/>
	<path clip-path="url(#SVGID_5_)" d="M854.761,632.264v81.613h-14.67v-69.979h-27.992v21.247c0,22.932-2.191,38.276-12.815,45.19
		c-4.046,3.204-8.6,5.06-16.188,5.06l-1.517-11.636c2.867-0.506,6.07-1.686,8.094-3.372c7.588-5.564,8.431-17.031,8.431-35.242
		v-32.882H854.761z"/>
	<path clip-path="url(#SVGID_5_)" d="M887.306,675.768c0.337,20.066,13.152,28.329,27.991,28.329
		c10.624,0,17.032-1.854,22.596-4.216l2.529,10.624c-5.227,2.361-14.164,5.06-27.148,5.06c-25.125,0-40.133-16.525-40.133-41.146
		c0-24.619,14.502-44.011,38.278-44.011c26.642,0,33.725,23.438,33.725,38.447c0,3.034-0.337,5.395-0.506,6.912H887.306z
		 M930.811,665.146c0.168-9.443-3.878-24.113-20.572-24.113c-15.008,0-21.584,13.827-22.765,24.113H930.811z"/>
	<path clip-path="url(#SVGID_5_)" d="M978.195,632.264v35.41h3.541l30.69-35.41h18.043l-35.58,36.929
		c13.153,1.348,21.078,10.117,27.486,24.788c2.192,5.395,5.058,13.32,8.768,19.896h-15.513c-2.192-3.541-5.059-9.948-7.588-16.693
		c-5.565-13.152-13.153-19.224-26.98-19.224h-2.867v35.917h-14.67v-81.613H978.195z"/>
	<polygon clip-path="url(#SVGID_5_)" points="1102.303,632.264 1102.303,644.068 1076.841,644.068 1076.841,713.877 
		1062.17,713.877 1062.17,644.068 1036.708,644.068 1036.708,632.264 	"/>
	<path clip-path="url(#SVGID_5_)" d="M1115.29,658.906c0-10.454-0.338-18.886-0.675-26.643h13.322l0.674,13.997h0.337
		c6.071-9.95,15.682-15.852,29.004-15.852c19.729,0,34.568,16.693,34.568,41.481c0,29.341-17.874,43.842-37.098,43.842
		c-10.792,0-20.234-4.72-25.125-12.814h-0.337v44.348h-14.67V658.906z M1129.959,680.66c0,2.19,0.337,4.215,0.674,6.069
		c2.699,10.286,11.636,17.368,22.259,17.368c15.682,0,24.788-12.815,24.788-31.533c0-16.355-8.6-30.352-24.282-30.352
		c-10.118,0-19.562,7.251-22.427,18.381c-0.506,1.854-1.012,4.046-1.012,6.07V680.66z"/>
	<path clip-path="url(#SVGID_5_)" d="M1285.094,672.396c0,30.185-20.91,43.336-40.639,43.336c-22.09,0-39.121-16.187-39.121-41.986
		c0-27.318,17.875-43.337,40.47-43.337C1269.244,630.409,1285.094,647.439,1285.094,672.396 M1220.342,673.239
		c0,17.874,10.286,31.364,24.788,31.364c14.164,0,24.788-13.321,24.788-31.701c0-13.826-6.914-31.363-24.451-31.363
		S1220.342,657.725,1220.342,673.239"/>
	<polygon clip-path="url(#SVGID_5_)" points="1318.146,632.264 1318.146,665.146 1356.93,665.146 1356.93,632.264 1371.6,632.264 
		1371.6,713.877 1356.93,713.877 1356.93,676.95 1318.146,676.95 1318.146,713.877 1303.475,713.877 1303.475,632.264 	"/>
	<polygon clip-path="url(#SVGID_5_)" points="1410.215,632.264 1410.215,665.146 1449,665.146 1449,632.264 1463.669,632.264 
		1463.669,713.877 1449,713.877 1449,676.95 1410.215,676.95 1410.215,713.877 1395.545,713.877 1395.545,632.264 	"/>
	<path clip-path="url(#SVGID_5_)" d="M1502.286,632.263v27.824c3.202-0.675,7.925-1.012,13.321-1.012
		c17.537,0,35.242,7.251,35.242,27.315c0,8.602-3.204,14.502-8.431,18.888c-8.938,7.588-22.09,9.441-32.883,9.441
		c-8.262,0-15.851-0.506-21.922-1.179v-81.278H1502.286z M1502.286,703.591c2.865,0.337,6.07,0.675,10.285,0.675
		c11.299,0,23.608-4.721,23.608-17.369c0-13.151-11.804-17.198-22.935-17.198c-4.215,0-7.925,0.337-10.959,0.843V703.591z
		 M1575.806,713.878h-14.671v-81.614h14.671V713.878z"/>
	<path clip-path="url(#SVGID_5_)" d="M1607.003,632.264l11.635,17.536c3.035,4.554,5.563,8.77,8.262,13.321h0.506
		c2.699-4.89,5.396-9.105,8.095-13.49l11.467-17.367h16.019l-27.823,39.458l28.666,42.155h-16.861l-11.973-18.38
		c-3.205-4.721-5.901-9.273-8.769-14.165h-0.337c-2.699,4.892-5.565,9.275-8.6,14.165l-11.805,18.38h-16.356l29.004-41.649
		l-27.654-39.964H1607.003z"/>
	<path clip-path="url(#SVGID_5_)" d="M1759.102,713.877l-1.18-10.286h-0.506c-4.553,6.408-13.321,12.142-24.956,12.142
		c-16.526,0-24.956-11.636-24.956-23.439c0-19.729,17.536-30.521,49.068-30.352v-1.688c0-6.745-1.854-18.885-18.549-18.885
		c-7.588,0-15.513,2.36-21.246,6.07l-3.373-9.78c6.746-4.384,16.526-7.251,26.813-7.251c24.956,0,31.025,17.031,31.025,33.387
		v30.522c0,7.082,0.339,13.996,1.351,19.56H1759.102z M1756.911,672.227c-16.188-0.337-34.567,2.529-34.567,18.381
		c0,9.611,6.407,14.165,13.995,14.165c10.624,0,17.369-6.745,19.729-13.659c0.506-1.519,0.844-3.203,0.844-4.723V672.227z"/>
	<path clip-path="url(#SVGID_5_)" d="M1809.859,632.264v35.41h3.542l30.688-35.41h18.043l-35.58,36.929
		c13.153,1.348,21.078,10.117,27.487,24.788c2.191,5.395,5.058,13.32,8.768,19.896h-15.513c-2.192-3.541-5.059-9.948-7.589-16.693
		c-5.564-13.152-13.153-19.224-26.98-19.224h-2.866v35.917h-14.671v-81.613H1809.859z"/>
	<polygon clip-path="url(#SVGID_5_)" points="1933.967,632.264 1933.967,644.068 1908.504,644.068 1908.504,713.877 
		1893.834,713.877 1893.834,644.068 1868.371,644.068 1868.371,632.264 	"/>
	<path clip-path="url(#SVGID_5_)" d="M1955.888,632.264l17.874,48.227c1.854,5.395,3.878,11.803,5.228,16.693h0.336
		c1.519-4.891,3.205-11.129,5.228-17.03l16.188-47.89h15.683l-22.26,58.176c-10.623,27.991-17.874,42.324-27.99,51.093
		c-7.252,6.408-14.502,8.938-18.213,9.611l-3.71-12.479c3.71-1.18,8.601-3.541,12.985-7.251c4.047-3.204,9.105-8.937,12.479-16.524
		c0.674-1.519,1.18-2.698,1.18-3.541c0-0.844-0.337-2.023-1.012-3.879l-30.184-75.206H1955.888z"/>
	<path clip-path="url(#SVGID_5_)" d="M2073.926,713.877l-1.18-10.286h-0.506c-4.553,6.408-13.321,12.142-24.956,12.142
		c-16.526,0-24.956-11.636-24.956-23.439c0-19.729,17.536-30.521,49.068-30.352v-1.688c0-6.745-1.854-18.885-18.549-18.885
		c-7.588,0-15.513,2.36-21.246,6.07l-3.373-9.78c6.746-4.384,16.526-7.251,26.813-7.251c24.956,0,31.025,17.031,31.025,33.387
		v30.522c0,7.082,0.339,13.996,1.351,19.56H2073.926z M2071.735,672.227c-16.188-0.337-34.567,2.529-34.567,18.381
		c0,9.611,6.407,14.165,13.995,14.165c10.624,0,17.369-6.745,19.729-13.659c0.506-1.519,0.844-3.203,0.844-4.723V672.227z"/>
	<polygon clip-path="url(#SVGID_5_)" points="2163.977,632.264 2163.977,644.068 2138.514,644.068 2138.514,713.877 
		2123.844,713.877 2123.844,644.068 2098.38,644.068 2098.38,632.264 	"/>
	<path clip-path="url(#SVGID_5_)" d="M2248.628,672.396c0,30.185-20.909,43.336-40.64,43.336c-22.09,0-39.119-16.187-39.119-41.986
		c0-27.318,17.873-43.337,40.47-43.337C2232.777,630.409,2248.628,647.439,2248.628,672.396 M2183.876,673.239
		c0,17.874,10.286,31.364,24.788,31.364c14.164,0,24.787-13.321,24.787-31.701c0-13.826-6.914-31.363-24.45-31.363
		S2183.876,657.725,2183.876,673.239"/>
	<path clip-path="url(#SVGID_5_)" d="M2267.346,658.906c0-10.454-0.336-18.886-0.675-26.643h13.322l0.674,13.997h0.337
		c6.072-9.95,15.684-15.852,29.004-15.852c19.73,0,34.569,16.693,34.569,41.481c0,29.341-17.874,43.842-37.098,43.842
		c-10.792,0-20.235-4.72-25.125-12.814h-0.338v44.348h-14.671V658.906z M2282.017,680.66c0,2.19,0.338,4.215,0.675,6.069
		c2.697,10.286,11.636,17.368,22.259,17.368c15.681,0,24.788-12.815,24.788-31.533c0-16.355-8.602-30.352-24.283-30.352
		c-10.117,0-19.56,7.251-22.426,18.381c-0.506,1.854-1.013,4.046-1.013,6.07V680.66z"/>
	<path clip-path="url(#SVGID_5_)" d="M2437.152,672.396c0,30.185-20.909,43.336-40.64,43.336c-22.09,0-39.119-16.187-39.119-41.986
		c0-27.318,17.873-43.337,40.47-43.337C2421.3,630.409,2437.152,647.439,2437.152,672.396 M2372.4,673.239
		c0,17.874,10.286,31.364,24.788,31.364c14.164,0,24.787-13.321,24.787-31.701c0-13.826-6.914-31.363-24.45-31.363
		S2372.4,657.725,2372.4,673.239"/>
	<path clip-path="url(#SVGID_5_)" d="M2455.534,633.275c5.732-1.011,16.355-1.854,25.968-1.854c13.659,0,36.255,2.191,36.255,20.403
		c0,10.117-7.757,16.357-17.032,18.381v0.337c11.972,1.686,20.741,8.432,20.741,20.234c0,21.415-26.98,24.114-42.999,24.114
		c-9.106,0-18.549-0.675-22.933-1.012V633.275z M2469.528,704.098c4.217,0.505,7.252,0.674,11.974,0.674
		c9.949,0,24.788-2.361,24.788-14.165c0-11.803-11.805-14.333-25.969-14.333h-10.793V704.098z M2469.698,666.494h11.129
		c10.961,0,22.259-3.203,22.259-12.814c0-8.094-7.082-11.973-21.921-11.973c-4.891,0-7.926,0.338-11.467,0.675V666.494z"/>
</g>
</svg>
